<svg width="40" height="40" viewBox="0 0 40 40" fill="none" xmlns="http://www.w3.org/2000/svg">
<path d="M33.4472 25.3709C32.7238 25.8765 31.8924 26.2052 31.0196 26.3306C30.1469 26.456 29.257 26.3747 28.4212 26.0931C28.3455 26.0661 28.2644 26.0577 28.1847 26.0688C28.1051 26.0799 28.0293 26.1101 27.9638 26.1568L25.7145 27.7572L26.2933 28.5752L28.3342 27.1208C29.2881 27.4004 30.2921 27.4629 31.2731 27.3039C32.2542 27.1448 33.1875 26.7682 34.0051 26.2015C34.2997 26.0018 34.5789 25.7801 34.8403 25.5384L34.1625 24.8012C33.9388 25.009 33.6997 25.1994 33.4472 25.3709Z" fill="#40382A"/>
<path d="M28.4137 17.886C27.6983 18.3446 27.1252 18.9951 26.7593 19.7639C26.3935 20.5326 26.2495 21.3887 26.3438 22.2353L20.0071 26.3108L13.6695 22.2378C13.7658 21.3909 13.6225 20.534 13.2561 19.765C12.8897 18.996 12.3149 18.346 11.5976 17.8895C10.6454 17.2309 9.48745 16.9412 8.33855 17.074C7.79661 17.1272 7.27307 17.2998 6.8053 17.5795C6.33754 17.8592 5.93709 18.2391 5.63256 18.6921C5.32802 19.145 5.12691 19.6598 5.04357 20.1997C4.96024 20.7396 4.99674 21.2914 5.15048 21.8155C5.45844 22.9335 6.16015 23.9015 7.1254 24.5399C7.81653 25.037 8.63332 25.3285 9.48206 25.3811C10.3308 25.4338 11.1771 25.2453 11.924 24.8373L16.8431 28.3415L12.1619 31.3533C11.9407 31.4943 11.7499 31.6785 11.6008 31.8949C11.4518 32.1113 11.3476 32.3556 11.2944 32.6131C11.2411 32.8707 11.24 33.1363 11.2909 33.3944C11.3419 33.6524 11.444 33.8975 11.5911 34.1152C11.7376 34.3325 11.926 34.5182 12.145 34.6614C12.3641 34.8045 12.6095 34.9024 12.8668 34.9491C13.124 34.9958 13.388 34.9905 13.6432 34.9334C13.8984 34.8764 14.1397 34.7687 14.3528 34.6168L20.0071 30.5934L25.6615 34.6198C25.8749 34.7764 26.1176 34.8882 26.375 34.9485C26.6325 35.0087 26.8995 35.0162 27.1599 34.9705C27.4203 34.9248 27.6689 34.8268 27.8907 34.6824C28.1124 34.538 28.3029 34.3502 28.4506 34.1302C28.5983 33.9101 28.7002 33.6625 28.7503 33.402C28.8003 33.1415 28.7974 32.8736 28.7418 32.6143C28.6862 32.3549 28.5789 32.1095 28.4265 31.8927C28.2741 31.676 28.0797 31.4923 27.8549 31.3528L23.1682 28.3435L28.0908 24.8378C28.8376 25.2459 29.6838 25.4346 30.5326 25.3821C31.3813 25.3297 32.1982 25.0383 32.8894 24.5414C34.9438 23.1501 35.6146 20.5251 34.3835 18.6894C33.1523 16.8538 30.4726 16.4947 28.4137 17.886ZM13.774 33.8008C13.5604 33.945 13.2991 33.9998 13.0458 33.9534C12.7925 33.907 12.5674 33.7631 12.4184 33.5525C12.3462 33.4457 12.2962 33.3255 12.2712 33.199C12.2463 33.0725 12.2469 32.9422 12.273 32.8159C12.2992 32.6896 12.3503 32.5699 12.4235 32.4638C12.4966 32.3577 12.5902 32.2674 12.6988 32.1983L17.7218 28.9664L19.1409 29.9765L13.774 33.8008ZM27.7399 32.8162C27.7791 33.0065 27.7602 33.2043 27.6859 33.3837C27.6115 33.5631 27.4851 33.7159 27.323 33.8222C27.1609 33.9285 26.9706 33.9834 26.777 33.9798C26.5834 33.9761 26.3953 33.9141 26.2373 33.8018L12.2219 23.8212C12.1365 23.7604 12.0341 23.728 11.9294 23.7288C11.8246 23.7295 11.7227 23.7632 11.6381 23.8252C11.0459 24.2129 10.3497 24.4096 9.6429 24.3887C8.93611 24.3678 8.25262 24.1304 7.68424 23.7083C6.91951 23.205 6.36258 22.4406 6.11669 21.5567C5.99904 21.1706 5.9689 20.763 6.02849 20.3637C6.08808 19.9644 6.23589 19.5836 6.4611 19.249C6.68631 18.9144 6.98323 18.6346 7.33012 18.43C7.67702 18.2254 8.06511 18.1012 8.46601 18.0665C9.37477 17.9642 10.2897 18.1958 11.0413 18.7185C11.6437 19.0895 12.1187 19.6366 12.4023 20.2863C12.6859 20.9361 12.7646 21.6573 12.6278 22.3532C12.6021 22.4552 12.609 22.5627 12.6476 22.6605C12.6862 22.7584 12.7544 22.8416 12.8427 22.8983L27.3155 32.1978C27.4241 32.267 27.5176 32.3574 27.5905 32.4636C27.6634 32.5699 27.7143 32.6898 27.7399 32.8162ZM32.3286 23.7073C31.76 24.1293 31.0764 24.3665 30.3695 24.3872C29.6626 24.4079 28.9663 24.2111 28.3742 23.8232C28.2896 23.7612 28.1877 23.7275 28.0829 23.7267C27.9782 23.726 27.8758 23.7584 27.7904 23.8192L22.2605 27.7582L20.9349 26.9056L27.1701 22.8933C27.2582 22.8366 27.3263 22.7536 27.3649 22.656C27.4034 22.5583 27.4105 22.451 27.385 22.3491C27.251 21.6531 27.3311 20.9327 27.6149 20.2835C27.8986 19.6343 28.3725 19.0871 28.9735 18.7145C30.5731 17.6327 32.6295 17.8714 33.5537 19.2451C34.4779 20.6188 33.9276 22.6255 32.3286 23.7073ZM10.4734 5.91927L9.92009 5.08371C8.71264 5.88648 7.80711 7.07101 7.34733 8.44919C6.88755 9.82737 6.89986 11.3202 7.38233 12.6905L8.32455 12.3555C7.91659 11.1958 7.90652 9.93256 8.29594 8.76646C8.68536 7.60035 9.45194 6.59823 10.4739 5.91927H10.4734ZM9.38524 14.162C9.14456 13.8881 8.93127 13.5911 8.74843 13.2753L7.88318 13.7769C8.09906 14.1502 8.35103 14.5013 8.63546 14.8251L9.38524 14.162Z" fill="#40382A"/>
<path d="M25.4955 22.1525L26.9186 15.0137C28.0756 14.9126 29.1489 14.3666 29.9138 13.4898C30.6787 12.6129 31.076 11.4733 31.0226 10.3092C30.9692 9.14521 30.4692 8.04699 29.6272 7.24438C28.7853 6.44177 27.6666 5.99696 26.5053 6.00303C25.4945 5.99944 24.5128 6.34176 23.7221 6.9735C23.3102 6.36549 22.7564 5.8678 22.1089 5.52382C21.4614 5.17983 20.7398 5 20.0071 5C19.2745 5 18.5529 5.17983 17.9054 5.52382C17.2579 5.8678 16.7041 6.36549 16.2922 6.9735C15.5015 6.34176 14.5198 5.99944 13.509 6.00303C12.3517 6.00292 11.2388 6.45038 10.4017 7.25238C9.5647 8.05438 9.06793 9.14922 9.0147 10.3093C8.96147 11.4693 9.35587 12.6053 10.1159 13.4811C10.876 14.3569 11.9432 14.905 13.0957 15.0116L14.5187 22.1525L15.4985 21.9559L15.2185 20.5476H24.7958L24.5158 21.9519L25.4955 22.1525ZM23.0827 19.5445L23.5011 16.6065L22.5114 16.4641L22.073 19.5445H20.507V14.0276H19.5073V19.5445H17.9412L17.5029 16.4641L16.5132 16.6065L16.9315 19.5445H15.0186L13.9989 14.4289C13.9759 14.3156 13.9145 14.2138 13.8252 14.1406C13.736 14.0675 13.6243 14.0276 13.509 14.0276C12.5811 14.0276 11.6911 13.6577 11.0349 12.9994C10.3787 12.341 10.0101 11.448 10.0101 10.5169C10.0101 9.58575 10.3787 8.69278 11.0349 8.03438C11.6911 7.37599 12.5811 7.0061 13.509 7.0061C13.9854 7.00488 14.4569 7.10223 14.894 7.29208C15.3312 7.48193 15.7246 7.76019 16.0498 8.10949C16.1054 8.16844 16.1743 8.21298 16.2508 8.2393C16.3273 8.26562 16.409 8.27293 16.4889 8.2606C16.5689 8.24827 16.6446 8.21667 16.7097 8.16851C16.7748 8.12035 16.8272 8.05707 16.8626 7.9841C17.1481 7.39075 17.5946 6.89021 18.1508 6.53994C18.7071 6.18967 19.3505 6.00387 20.0071 6.00387C20.6638 6.00387 21.3072 6.18967 21.8634 6.53994C22.4197 6.89021 22.8662 7.39075 23.1517 7.9841C23.1871 8.05707 23.2395 8.12035 23.3046 8.16851C23.3697 8.21667 23.4454 8.24827 23.5253 8.2606C23.6053 8.27293 23.687 8.26562 23.7635 8.2393C23.84 8.21298 23.9089 8.16844 23.9645 8.10949C24.2896 7.76019 24.6831 7.48193 25.1203 7.29208C25.5574 7.10223 26.0289 7.00488 26.5053 7.0061C27.4332 7.0061 28.3232 7.37599 28.9794 8.03438C29.6356 8.69278 30.0042 9.58575 30.0042 10.5169C30.0042 11.448 29.6356 12.341 28.9794 12.9994C28.3232 13.6577 27.4332 14.0276 26.5053 14.0276C26.39 14.0276 26.2783 14.0675 26.1891 14.1406C26.0998 14.2138 26.0384 14.3156 26.0154 14.4289L24.9957 19.5445H23.0827Z" fill="#40382A"/>
</svg>
