<svg width="40" height="40" viewBox="0 0 40 40" fill="none" xmlns="http://www.w3.org/2000/svg">
<path d="M9.94619 6.09143C8.80304 6.37058 7.74195 7.24959 7.2202 8.34241C6.79225 9.24518 6.80983 9.00167 6.80983 14.7212V19.8468L6.52844 20.1794C5.73116 21.1237 5.227 22.27 5.05113 23.5469C5.00423 23.8676 4.9925 25.3465 5.00423 28.1261L5.02182 32.2242L5.24459 32.6755C5.49667 33.1982 5.87186 33.5783 6.38774 33.8337C6.69259 33.9881 6.78052 34 7.36676 34C7.94713 34 8.04679 33.9822 8.35163 33.8396C8.82648 33.6139 9.29547 33.1447 9.51824 32.6696C9.68825 32.3133 9.70584 32.2123 9.72929 31.5768L9.75274 30.8819H30.2475L30.271 31.5827C30.2944 32.2123 30.312 32.3133 30.482 32.6696C30.7048 33.1447 31.1738 33.6139 31.6486 33.8396C31.9535 33.9822 32.0531 34 32.6335 34C33.2197 34 33.3077 33.9881 33.6125 33.8337C34.1284 33.5783 34.5036 33.1982 34.7557 32.6755L34.9785 32.2242L34.996 28.0964C35.0078 24.6575 34.996 23.8676 34.9257 23.3984C34.7322 22.1393 34.1753 20.9515 33.3722 20.0606L33.0732 19.728V14.6855C33.0732 9.82723 33.0673 9.61935 32.9559 9.16797C32.6452 7.92667 31.8421 6.92887 30.7048 6.3884C29.8372 5.97265 30.5641 5.99641 19.9063 6.00235C11.7284 6.00829 10.2452 6.02016 9.94619 6.09143ZM29.7375 7.27929C29.9134 7.33274 30.183 7.44559 30.3472 7.52874C30.7107 7.71285 31.3555 8.36617 31.5607 8.7641C31.9066 9.41148 31.9007 9.35803 31.9007 14.2639C31.9007 16.7405 31.8949 18.7658 31.8831 18.7658C31.8773 18.7658 31.6604 18.6589 31.4024 18.5282C31.1445 18.3976 30.9041 18.2907 30.8631 18.2907C30.8045 18.2907 30.7869 18.0353 30.7869 17.1741C30.7869 15.8793 30.7341 15.517 30.4586 14.9172C30.2299 14.4064 29.5968 13.7293 29.1102 13.468C28.4888 13.1295 28.395 13.1235 25.0711 13.1235C21.7178 13.1235 21.7354 13.1235 21.0436 13.4917C20.856 13.5927 20.5453 13.8303 20.3519 14.0263L20.0001 14.3826L19.6543 14.0322C19.2849 13.6521 18.8101 13.367 18.3059 13.2185C17.8369 13.0819 12.0566 13.076 11.529 13.2126C11.0366 13.3433 10.6497 13.5749 10.1924 14.0085C9.88171 14.3054 9.74101 14.4955 9.56514 14.8697C9.26616 15.5052 9.2134 15.8437 9.2134 17.1622V18.2728L8.97304 18.3501C8.84407 18.3976 8.56268 18.5342 8.3575 18.653L7.98231 18.8787V14.2876C7.98231 10.243 7.99403 9.66093 8.0761 9.37584C8.36336 8.40181 9.07857 7.64752 10.0341 7.32086L10.4152 7.1902L19.9181 7.18426C28.483 7.18426 29.4502 7.19614 29.7375 7.27929ZM18.3294 14.5014C18.6928 14.6915 19.0856 15.1132 19.2556 15.4873C19.367 15.7308 19.3846 15.8912 19.4022 16.788L19.4256 17.8096L15.0347 17.8333C12.6253 17.8452 10.5911 17.8749 10.5207 17.9046L10.3859 17.9462V17.0018C10.3859 15.9862 10.4504 15.6121 10.7083 15.2082C10.9369 14.84 11.3766 14.4955 11.7928 14.3648C11.8749 14.3411 13.3112 14.3232 14.9878 14.3292L18.0362 14.3411L18.3294 14.5014ZM28.4888 14.4777C28.8992 14.6974 29.2333 15.0478 29.4151 15.4576C29.5792 15.814 29.5851 15.8615 29.6027 16.889L29.6261 17.9521L29.4854 17.9046C29.4092 17.8749 27.375 17.8452 24.9656 17.8333L20.5746 17.8096L20.5981 16.788C20.6157 15.8912 20.6333 15.7308 20.7447 15.4873C20.9733 14.9825 21.4774 14.5311 21.9933 14.3648C22.0754 14.3411 23.5117 14.3232 25.1883 14.3292L28.2367 14.3411L28.4888 14.4777ZM29.0282 19.0628C30.3589 19.2053 31.5607 19.7992 32.4225 20.7614C32.827 21.2128 33.0321 21.5216 33.3077 22.1037C33.718 22.9708 33.7943 23.3687 33.8236 24.8357L33.847 26.1245L27.7267 26.1602L27.5567 26.3562C27.3222 26.6175 27.3222 26.9085 27.5567 27.1461L27.7267 27.3183H33.8353V29.694H6.16498V27.3183H14.2433C23.1775 27.3183 22.5034 27.348 22.6382 26.9323C22.732 26.6353 22.5737 26.3087 22.2865 26.2077C22.134 26.1542 20.1291 26.1364 14.1143 26.1364L6.15325 26.1305L6.1767 24.806C6.20601 23.5885 6.21774 23.4459 6.3643 22.9589C6.80397 21.4741 7.68919 20.3635 8.99063 19.6626C9.53583 19.3657 10.2803 19.134 10.8842 19.0687C11.5994 18.9915 28.3071 18.9915 29.0282 19.0628ZM8.56854 31.3867C8.56854 32.1291 8.39267 32.4796 7.90023 32.7349C7.55435 32.9131 7.01502 32.8656 6.68672 32.634C6.3174 32.3667 6.20015 32.0876 6.1767 31.4283L6.15325 30.8819H8.56854V31.3867ZM33.8236 31.4283C33.8001 32.0876 33.6829 32.3667 33.3135 32.634C32.9853 32.8656 32.4459 32.9131 32.1 32.7349C31.6076 32.4796 31.4317 32.1291 31.4317 31.3867V30.8819H33.847L33.8236 31.4283Z" fill="#40382A"/>
<path d="M24.8835 26.178C24.6842 26.2077 24.4555 26.5225 24.4555 26.766C24.4555 27.063 24.7193 27.3183 25.0242 27.3183C25.4639 27.3183 25.7159 26.9323 25.5518 26.5284C25.5049 26.4156 25.4345 26.3027 25.3994 26.279C25.2821 26.2077 25.0183 26.1543 24.8835 26.178Z" fill="#40382A"/>
</svg>
