<svg width="40" height="40" viewBox="0 0 40 40" fill="none" xmlns="http://www.w3.org/2000/svg">
<path d="M16.952 6.03754C16.8793 6.04962 16.7703 6.11601 16.7098 6.18843C16.6008 6.30311 16.5947 6.54453 16.5766 11.6324C16.5705 14.5536 16.5766 17.0403 16.5947 17.1489C16.6129 17.2575 16.6855 17.4024 16.7521 17.4688C16.8672 17.5834 17.0186 17.5834 24.2842 17.5834C31.5861 17.5834 31.7012 17.5834 31.8222 17.4627C31.8888 17.3963 31.9554 17.2817 31.9736 17.2092C31.9918 17.1308 31.9978 14.6442 31.9918 11.6868L31.9736 6.30311L31.8344 6.16429C31.7012 6.03151 31.6588 6.02547 30.3146 6.00737C29.1885 5.98926 28.8918 6.00133 28.7162 6.07979C28.4801 6.17636 28.3892 6.36346 28.4558 6.63506C28.5224 6.88251 28.807 6.96098 29.6547 6.96098H30.3933L29.6183 7.74559H18.95L18.175 6.96098L22.7039 6.9489L27.2328 6.9308L27.3781 6.7618C27.5598 6.55056 27.5598 6.40571 27.3781 6.19447L27.2328 6.02547L22.1529 6.01944C19.3617 6.0134 17.0186 6.01944 16.952 6.03754ZM17.9389 7.99908L18.3203 8.37328V15.2055L17.4727 16.0384V11.8316C17.4727 9.52003 17.4908 7.62488 17.515 7.62488C17.5393 7.62488 17.733 7.79387 17.9389 7.99908ZM31.0957 11.8316V16.0384L30.248 15.2055V8.38535L30.6234 8.00512C30.8293 7.79387 31.023 7.62488 31.0472 7.62488C31.0715 7.62488 31.0957 9.52003 31.0957 11.8316ZM29.3277 10.359C29.3338 11.2824 29.3217 12.0308 29.2914 12.0187C29.2672 12.0127 28.9523 11.6807 28.589 11.2884C28.2258 10.8961 27.8504 10.534 27.7414 10.4797C27.475 10.3348 26.8877 10.3409 26.591 10.4857C26.4336 10.5642 25.931 11.0772 25.0834 12.0127C23.8664 13.3586 23.7998 13.419 23.709 13.3103C23.3033 12.7913 22.1832 11.6324 22.0016 11.5419C21.7351 11.4031 21.2508 11.391 20.9601 11.5117C20.833 11.5661 20.4637 11.9161 20.0096 12.4171L19.2588 13.2439L19.2406 11.0229C19.2346 9.80369 19.2406 8.76559 19.2588 8.72334C19.2769 8.66299 20.3123 8.65091 24.2963 8.66299L29.3096 8.68109L29.3277 10.359ZM27.3963 11.3488C27.4629 11.4091 27.9291 11.904 28.4256 12.4533L29.3338 13.4491L29.3398 14.1855V14.9278H25.1742L24.4295 14.0889L25.5859 12.8033C26.2277 12.0972 26.815 11.4574 26.8937 11.379C27.0754 11.216 27.2267 11.21 27.3963 11.3488ZM22.7947 13.6423L23.9572 14.9278H19.2285V14.7769C19.2285 14.6743 19.5191 14.3122 20.2699 13.4793C21.1781 12.4714 21.3295 12.3265 21.4748 12.3446C21.5959 12.3567 21.9047 12.6585 22.7947 13.6423ZM30.3933 16.6781H18.175L19.0105 15.8332H29.5578L30.3933 16.6781Z" fill="#40382A"/>
<path d="M23.2186 9.33293C23.0732 9.41139 22.8734 9.59245 22.7705 9.73127C22.607 9.96665 22.5889 10.033 22.5889 10.4555C22.5889 10.872 22.607 10.9504 22.7644 11.1738C22.9824 11.4876 23.4426 11.729 23.824 11.729C24.5021 11.723 25.1016 11.1315 25.1016 10.4616C25.1016 9.52003 24.0541 8.89837 23.2186 9.33293ZM24.0965 10.2322C24.2236 10.4133 24.2176 10.5581 24.0723 10.703C23.8361 10.9384 23.4668 10.7875 23.4668 10.4555C23.4668 10.1175 23.9088 9.96062 24.0965 10.2322Z" fill="#40382A"/>
<path d="M6.81035 7.92665C6.75586 7.95683 6.6832 8.05943 6.64687 8.14997C6.56816 8.33707 5 15.1753 5 15.3081C5 15.3564 5.05449 15.465 5.12715 15.5555L5.24824 15.7124H8.75391V31.4048H8.5541C7.3916 31.4048 6.50156 32.0928 6.34414 33.1188C6.27754 33.5353 6.30781 33.7163 6.46523 33.8612C6.58027 33.9638 6.77402 33.9698 9.05059 33.9879C10.4008 34 11.5996 33.9879 11.7086 33.9698C12.0174 33.9155 12.1445 33.7465 12.1445 33.3965C12.1445 32.8291 11.8055 32.1773 11.3271 31.8333C10.976 31.5798 10.6369 31.4711 10.1041 31.4229L9.66211 31.3866L9.69238 15.7426H10.8428L10.8609 18.4103L10.873 21.078L11.0305 21.1987C11.1213 21.2711 11.2303 21.3255 11.2727 21.3255C11.4301 21.3255 11.648 21.1866 11.7146 21.0418C11.757 20.9452 11.7812 20.0761 11.7812 18.3077V15.7124H12.4715C13.2525 15.7124 13.4342 15.64 13.4342 15.3141C13.4342 15.2175 13.077 13.5638 12.635 11.6385C11.9205 8.51209 11.8176 8.12582 11.6844 7.99908L11.533 7.8663H9.22012C7.88203 7.8663 6.86484 7.89647 6.81035 7.92665ZM11.0547 8.80783C11.0547 8.82594 11.3574 10.1477 11.7207 11.7411C12.09 13.3405 12.3867 14.6804 12.3867 14.7287C12.3867 14.7951 11.8297 14.8071 9.20195 14.8071C6.19883 14.8071 6.02324 14.8011 6.05352 14.6985C6.07168 14.6442 6.35625 13.3888 6.69531 11.9101C7.03437 10.4314 7.33105 9.12168 7.36738 8.99494L7.42793 8.77162H9.23828C10.2373 8.77162 11.0547 8.78973 11.0547 8.80783ZM10.5703 32.4248C10.758 32.5274 11.0486 32.7869 11.1213 32.9257C11.1758 33.0283 11.0668 33.0343 9.23828 33.0343H7.29473L7.38555 32.8653C7.49453 32.6541 7.78516 32.4429 8.06973 32.3704C8.42695 32.2859 10.3887 32.3282 10.5703 32.4248Z" fill="#40382A"/>
<path d="M16.4615 20.5107C15.3959 20.8004 14.5846 21.6695 14.3908 22.7378C14.3545 22.9369 14.3242 23.4922 14.3242 23.9811V24.8623L13.9307 25.0313C13.416 25.2546 13.0346 25.6227 12.7924 26.1418L12.5986 26.5462L12.5623 33.6258L12.7137 33.8008L12.859 33.9698H27.2328L27.3781 33.8008C27.5598 33.5896 27.5598 33.4447 27.3781 33.2335L27.2328 33.0645L22.1105 33.0464L16.9883 33.0343V29.6544H31.5801V33.0343H30.248C28.7707 33.0343 28.5285 33.0766 28.4559 33.3602C28.3893 33.6258 28.4801 33.8189 28.7041 33.9155C28.8736 33.9879 29.4852 34 32.2098 34C34.3471 34 35.5641 33.9759 35.673 33.9396C36.0061 33.8129 35.9939 33.9396 36 30.2157C36 27.0049 35.9939 26.7453 35.885 26.4013C35.6791 25.7434 35.1887 25.2304 34.5105 24.9709L34.2441 24.8683L34.2381 23.8966C34.2381 22.774 34.1473 22.3274 33.8203 21.7842C33.5721 21.3737 33.124 20.9513 32.7184 20.7461C32.0584 20.4141 32.1977 20.4201 26.1248 20.4201C23.0369 20.4201 20.4637 20.4382 20.4092 20.4563C20.2518 20.5167 20.1367 20.8366 20.2033 21.0176C20.3305 21.3375 20.058 21.3194 26.0764 21.3255C32.3066 21.3255 32.016 21.3074 32.5791 21.7359C32.7971 21.8988 32.9424 22.0799 33.0937 22.3756L33.3057 22.7921L33.3238 23.8302L33.348 24.8683L32.9848 25.0011C32.5125 25.1701 32.0826 25.5563 31.8162 26.0452L31.6104 26.4255L31.5922 27.5903L31.568 28.7491L17.0186 28.7189L16.9883 27.5722C16.958 26.516 16.9459 26.4013 16.8066 26.1237C16.5766 25.6529 16.0559 25.1701 15.6018 25.0071L15.2203 24.8683L15.2445 23.8302L15.2627 22.7921L15.4746 22.3756C15.626 22.0799 15.7713 21.8988 15.9832 21.7419C16.4555 21.3858 16.734 21.3255 17.8965 21.3255C18.8289 21.3255 18.9197 21.3134 19.0711 21.1987C19.277 21.0358 19.2891 20.734 19.0893 20.5529C18.9561 20.4262 18.8955 20.4201 17.8602 20.4262C17.1275 20.4262 16.6734 20.4563 16.4615 20.5107ZM15.4322 25.9245C15.5715 26.003 15.7652 26.184 15.8682 26.3228L16.0498 26.5884L16.0861 33.0343H13.4766V29.9683C13.4766 27.9826 13.5008 26.8238 13.5432 26.6729C13.5795 26.5462 13.7187 26.3228 13.852 26.178C14.2697 25.7253 14.8934 25.6288 15.4322 25.9245ZM34.1654 25.8219C34.5348 25.9305 34.9283 26.3228 35.0252 26.6729C35.0676 26.8238 35.0918 27.9826 35.0918 29.9683V33.0343H32.4883V29.8838C32.4883 26.8057 32.4883 26.7272 32.6154 26.4737C32.7547 26.178 33.0393 25.9366 33.3783 25.8159C33.675 25.7133 33.7961 25.7133 34.1654 25.8219Z" fill="#40382A"/>
</svg>
