<svg width="40" height="40" viewBox="0 0 40 40" fill="none" xmlns="http://www.w3.org/2000/svg">
<path d="M33.4928 18.5596C28.678 20.3665 27.1201 20.2505 23.5891 18.8725V18.4046C23.5891 18.2068 23.5286 18.0135 23.4152 17.849C23.3018 17.6845 23.1405 17.5563 22.9518 17.4806L18.8208 15.8246C18.6888 15.7706 18.5466 15.7441 18.4034 15.7466C18.2602 15.7492 18.1191 15.7809 17.9893 15.8396C17.8595 15.8984 17.7439 15.9828 17.65 16.0876C17.5561 16.1923 17.4859 16.315 17.4441 16.4476C11.3223 14.3222 7.57287 15.1227 6.21943 15.5842C5.99278 15.6615 5.78412 15.7815 5.60542 15.937C5.42671 16.0926 5.28146 16.2808 5.17799 16.4908C5.07452 16.7009 5.01487 16.9286 5.00244 17.161C4.99002 17.3934 5.02507 17.6258 5.10559 17.8451C5.23079 18.1966 5.4686 18.5001 5.78439 18.7117C6.10018 18.9232 6.47746 19.0316 6.8613 19.021L9.44012 26.8278C9.73047 27.7051 10.2265 28.5056 10.8894 29.1665C11.5523 29.8274 12.3641 30.3309 13.2614 30.6376V32.0921C12.9171 32.2095 12.6269 32.4411 12.4421 32.7458C12.2572 33.0506 12.1898 33.4088 12.2516 33.7571C12.3135 34.1054 12.5006 34.4213 12.78 34.6488C13.0593 34.8762 13.4128 35.0007 13.7778 35H15.8433C16.2274 34.9995 16.5976 34.8609 16.8821 34.611C17.1665 34.3611 17.345 34.0179 17.3828 33.6478C17.4207 33.2777 17.3151 32.9072 17.0868 32.6082C16.8584 32.3092 16.5235 32.103 16.1469 32.0296L16.6788 31.0001H25.3355L25.8673 32.0296C25.4908 32.103 25.1559 32.3092 24.9275 32.6082C24.6991 32.9072 24.5936 33.2777 24.6314 33.6478C24.6693 34.0179 24.8477 34.3611 25.1322 34.611C25.4167 34.8609 25.7869 34.9995 26.171 35H28.2365C28.6015 35.0007 28.955 34.8762 29.2343 34.6488C29.5136 34.4213 29.7008 34.1054 29.7626 33.7571C29.8245 33.4088 29.757 33.0506 29.5722 32.7458C29.3874 32.4411 29.0972 32.2095 28.7529 32.0921V30.6756C29.6492 30.3883 30.4655 29.9058 31.1391 29.2651C31.8126 28.6245 32.3255 27.8429 32.6382 26.9803L34.4373 22.0004C34.5638 21.9544 34.6841 21.9129 34.8132 21.8644C35.0396 21.7822 35.2469 21.6574 35.4232 21.4971C35.5994 21.3368 35.7411 21.1442 35.84 20.9306C35.9389 20.7169 35.9931 20.4864 35.9994 20.2523C36.0057 20.0183 35.964 19.7853 35.8767 19.567C35.7894 19.3487 35.6583 19.1492 35.4908 18.9803C35.3234 18.8113 35.1231 18.6762 34.9014 18.5827C34.6797 18.4892 34.4411 18.4392 34.1993 18.4355C33.9575 18.4319 33.7174 18.4747 33.4928 18.5616V18.5596ZM18.4252 24.5004H22.5563V25.5003C22.5563 25.6329 22.5019 25.7601 22.405 25.8539C22.3082 25.9476 22.1769 26.0003 22.0399 26.0003H18.9416C18.8046 26.0003 18.6733 25.9476 18.5765 25.8539C18.4796 25.7601 18.4252 25.6329 18.4252 25.5003V24.5004ZM22.5563 18.4046V23.5004H18.4252V16.7506L22.5563 18.4046ZM6.08001 17.5136C6.04452 17.418 6.02892 17.3166 6.03411 17.2152C6.03931 17.1137 6.06519 17.0143 6.11026 16.9226C6.15534 16.8309 6.21872 16.7487 6.29675 16.6808C6.37477 16.613 6.46591 16.5607 6.56489 16.5271C7.83416 16.0941 11.4065 15.3442 17.3924 17.4916V19.1415C11.4148 16.8661 8.00354 17.6766 7.09315 17.9846H7.08334C7.07611 17.9846 7.0694 17.9846 7.06217 17.9871C7.05896 17.9885 7.05586 17.9902 7.05287 17.9921C6.85828 18.0492 6.64844 18.0312 6.46715 17.9421C6.28587 17.8529 6.14717 17.6994 6.08001 17.5136ZM16.3597 33.5C16.3597 33.6327 16.3053 33.7598 16.2084 33.8536C16.1116 33.9474 15.9802 34 15.8433 34H13.7778C13.6408 34 13.5095 33.9474 13.4126 33.8536C13.3158 33.7598 13.2614 33.6327 13.2614 33.5C13.2614 33.3674 13.3158 33.2403 13.4126 33.1465C13.5095 33.0527 13.6408 33.0001 13.7778 33.0001H15.8433C15.9802 33.0001 16.1116 33.0527 16.2084 33.1465C16.3053 33.2403 16.3597 33.3674 16.3597 33.5ZM28.2365 34H26.171C26.034 34 25.9027 33.9474 25.8058 33.8536C25.709 33.7598 25.6546 33.6327 25.6546 33.5C25.6546 33.3674 25.709 33.2403 25.8058 33.1465C25.9027 33.0527 26.034 33.0001 26.171 33.0001H28.2365C28.3735 33.0001 28.5048 33.0527 28.6017 33.1465C28.6985 33.2403 28.7529 33.3674 28.7529 33.5C28.7529 33.6327 28.6985 33.7598 28.6017 33.8536C28.5048 33.9474 28.3735 34 28.2365 34ZM31.6638 26.6503C31.423 27.3163 31.0391 27.9253 30.5373 28.4371C30.0356 28.9489 29.4274 29.3518 28.7529 29.6192V29.5002C28.7529 29.3676 28.6985 29.2404 28.6017 29.1466C28.5048 29.0529 28.3735 29.0002 28.2365 29.0002C28.0996 29.0002 27.9682 29.0529 27.8714 29.1466C27.7745 29.2404 27.7201 29.3676 27.7201 29.5002V32.0001H27.0065L25.603 29.2767C25.5417 29.158 25.4343 29.0677 25.3044 29.0257C25.1744 28.9837 25.0325 28.9934 24.91 29.0527C24.7874 29.112 24.6942 29.216 24.6508 29.3418C24.6074 29.4676 24.6174 29.605 24.6786 29.7237L24.8217 30.0002H17.1952L17.3382 29.7237C17.3994 29.605 17.4095 29.4676 17.3661 29.3418C17.3227 29.216 17.2295 29.112 17.1069 29.0527C16.9843 28.9934 16.8424 28.9837 16.7125 29.0257C16.5825 29.0677 16.4751 29.158 16.4139 29.2767L15.0078 32.0001H14.2941V29.5002C14.2941 29.3676 14.2397 29.2404 14.1429 29.1466C14.046 29.0529 13.9147 29.0002 13.7778 29.0002C13.6408 29.0002 13.5095 29.0529 13.4126 29.1466C13.3158 29.2404 13.2614 29.3676 13.2614 29.5002V29.5717C12.5914 29.2878 11.9915 28.869 11.5018 28.3431C11.0121 27.8172 10.6437 27.1963 10.4213 26.5218L7.87341 18.804C10.8091 18.1006 14.5895 19.1235 17.3924 20.2155V25.5003C17.3924 25.8981 17.5557 26.2796 17.8462 26.5609C18.1367 26.8422 18.5307 27.0003 18.9416 27.0003H22.0399C22.4508 27.0003 22.8448 26.8422 23.1353 26.5609C23.4258 26.2796 23.5891 25.8981 23.5891 25.5003V22.6659C24.9486 23.1682 26.3891 23.4337 27.8441 23.4504C29.6702 23.3962 31.4748 23.0525 33.1861 22.4329L31.6638 26.6503ZM34.4424 20.93C31.6447 21.9814 29.6096 22.4504 27.8441 22.4504C26.3838 22.4228 24.9414 22.1347 23.5891 21.6005V19.9505C27.1289 21.2815 29.0292 21.3095 33.8651 19.493C34.0621 19.419 34.2813 19.4238 34.4746 19.5063C34.6679 19.5888 34.8194 19.7423 34.8958 19.933C34.9722 20.1237 34.9673 20.336 34.8821 20.5231C34.7969 20.7103 34.6383 20.857 34.4414 20.931L34.4424 20.93Z" fill="#40382A"/>
<path d="M10.5514 20.3505C10.5345 20.2839 10.5036 20.2214 10.4607 20.1668C10.4178 20.1123 10.3637 20.0669 10.3019 20.0334C10.2401 20 10.1718 19.9792 10.1014 19.9723C10.0309 19.9655 9.95974 19.9728 9.8923 19.9937C9.82486 20.0146 9.76259 20.0488 9.70935 20.094C9.65612 20.1392 9.61306 20.1946 9.58285 20.2566C9.55265 20.3186 9.53594 20.386 9.53377 20.4545C9.53161 20.5231 9.54402 20.5913 9.57025 20.655L11.4081 26.2208C11.4494 26.3469 11.5406 26.452 11.6618 26.5131C11.7829 26.5742 11.9242 26.5863 12.0546 26.5468C12.185 26.5064 12.2936 26.4175 12.3563 26.2996C12.4191 26.1818 12.4309 26.0446 12.3892 25.9183L10.5514 20.3505ZM25.1382 14.0007C24.7273 14.0007 24.3333 14.1587 24.0428 14.44C23.7523 14.7213 23.5891 15.1028 23.5891 15.5007C23.5891 15.8985 23.7523 16.28 24.0428 16.5613C24.3333 16.8426 24.7273 17.0006 25.1382 17.0006C25.5491 17.0006 25.9431 16.8426 26.2336 16.5613C26.5241 16.28 26.6874 15.8985 26.6874 15.5007C26.6874 15.1028 26.5241 14.7213 26.2336 14.44C25.9431 14.1587 25.5491 14.0007 25.1382 14.0007ZM25.1382 16.0006C25.0013 16.0006 24.8699 15.948 24.7731 15.8542C24.6762 15.7604 24.6218 15.6333 24.6218 15.5007C24.6218 15.3681 24.6762 15.2409 24.7731 15.1471C24.8699 15.0534 25.0013 15.0007 25.1382 15.0007C25.2752 15.0007 25.4065 15.0534 25.5033 15.1471C25.6002 15.2409 25.6546 15.3681 25.6546 15.5007C25.6546 15.6333 25.6002 15.7604 25.5033 15.8542C25.4065 15.948 25.2752 16.0006 25.1382 16.0006ZM30.3021 8.25091C30.3021 7.95544 30.242 7.66287 30.1252 7.3899C30.0084 7.11692 29.8372 6.8689 29.6215 6.65997C29.4057 6.45105 29.1495 6.28532 28.8676 6.17225C28.5856 6.05918 28.2835 6.00098 27.9783 6.00098C27.6732 6.00098 27.371 6.05918 27.0891 6.17225C26.8071 6.28532 26.551 6.45105 26.3352 6.65997C26.1194 6.8689 25.9483 7.11692 25.8315 7.3899C25.7147 7.66287 25.6546 7.95544 25.6546 8.25091C25.6546 8.84762 25.8994 9.4199 26.3352 9.84184C26.771 10.2638 27.362 10.5008 27.9783 10.5008C28.5946 10.5008 29.1857 10.2638 29.6215 9.84184C30.0572 9.4199 30.3021 8.84762 30.3021 8.25091ZM26.6874 8.25091C26.6874 7.9194 26.8234 7.60147 27.0655 7.36705C27.3076 7.13264 27.6359 7.00095 27.9783 7.00095C28.3207 7.00095 28.6491 7.13264 28.8912 7.36705C29.1333 7.60147 29.2693 7.9194 29.2693 8.25091C29.2693 8.58242 29.1333 8.90035 28.8912 9.13476C28.6491 9.36917 28.3207 9.50086 27.9783 9.50086C27.6359 9.50086 27.3076 9.36917 27.0655 9.13476C26.8234 8.90035 26.6874 8.58242 26.6874 8.25091ZM29.0111 15.0007C29.2484 15.0007 29.4835 14.9554 29.7027 14.8675C29.922 14.7795 30.1213 14.6506 30.2891 14.4881C30.4569 14.3256 30.59 14.1327 30.6809 13.9204C30.7717 13.7081 30.8184 13.4805 30.8184 13.2507C30.8184 13.0209 30.7717 12.7934 30.6809 12.5811C30.59 12.3688 30.4569 12.1758 30.2891 12.0133C30.1213 11.8508 29.922 11.7219 29.7027 11.634C29.4835 11.5461 29.2484 11.5008 29.0111 11.5008C28.5318 11.5008 28.0721 11.6852 27.7331 12.0133C27.3942 12.3415 27.2037 12.7866 27.2037 13.2507C27.2037 13.7148 27.3942 14.16 27.7331 14.4881C28.0721 14.8163 28.5318 15.0007 29.0111 15.0007ZM29.0111 12.5008C29.2165 12.5008 29.4135 12.5798 29.5588 12.7204C29.7041 12.8611 29.7857 13.0518 29.7857 13.2507C29.7857 13.4496 29.7041 13.6404 29.5588 13.781C29.4135 13.9217 29.2165 14.0007 29.0111 14.0007C28.8057 14.0007 28.6086 13.9217 28.4634 13.781C28.3181 13.6404 28.2365 13.4496 28.2365 13.2507C28.2365 13.0518 28.3181 12.8611 28.4634 12.7204C28.6086 12.5798 28.8057 12.5008 29.0111 12.5008ZM12.8421 11.1968C13.1241 11.0032 13.3556 10.7486 13.518 10.4531C13.6804 10.1576 13.7694 9.8295 13.7778 9.49486C13.7687 9.15928 13.6781 8.83048 13.5133 8.53513C13.3485 8.23978 13.1141 7.98619 12.8292 7.79492C12.4455 7.46443 12.2286 7.25794 12.2286 6.83445C12.2286 6.41097 12.4455 6.20398 12.8292 5.87549C12.88 5.83196 12.9215 5.77915 12.9513 5.72009C12.9811 5.66102 12.9986 5.59686 13.0027 5.53126C13.0069 5.46566 12.9977 5.3999 12.9756 5.33775C12.9535 5.27559 12.919 5.21826 12.8741 5.16901C12.8291 5.11977 12.7746 5.07958 12.7136 5.05074C12.6526 5.02191 12.5863 5.00499 12.5186 5.00095C12.4508 4.99691 12.3829 5.00583 12.3187 5.0272C12.2545 5.04857 12.1953 5.08198 12.1444 5.12551C11.86 5.31937 11.6262 5.57477 11.4615 5.87142C11.2968 6.16807 11.2059 6.49781 11.1958 6.83445C11.2062 7.17089 11.2974 7.50036 11.462 7.79679C11.6266 8.09323 11.8603 8.3485 12.1444 8.5424C12.5384 8.87989 12.745 9.07588 12.745 9.49486C12.745 9.91385 12.541 10.1138 12.1444 10.4598C11.8602 10.6536 11.6266 10.9087 11.4619 11.2051C11.2972 11.5015 11.2062 11.8309 11.1958 12.1673C11.2165 12.8493 11.5676 13.4822 12.1444 13.8752C12.2471 13.9631 12.3817 14.0079 12.5186 13.9998C12.6554 13.9916 12.7833 13.9312 12.8741 13.8317C12.9649 13.7323 13.0112 13.602 13.0027 13.4695C12.9943 13.337 12.9319 13.2132 12.8292 13.1252C12.4455 12.7978 12.2286 12.5913 12.2286 12.1673C12.2286 11.7433 12.4455 11.5373 12.8421 11.1968ZM15.9404 11.1968C16.2224 11.0032 16.4539 10.7486 16.6163 10.4531C16.7787 10.1576 16.8677 9.8295 16.8761 9.49486C16.867 9.15928 16.7764 8.83048 16.6116 8.53513C16.4468 8.23978 16.2124 7.98619 15.9275 7.79492C15.5438 7.46443 15.3269 7.25794 15.3269 6.83445C15.3269 6.41097 15.5438 6.20398 15.9275 5.87549C15.9783 5.83196 16.0198 5.77915 16.0496 5.72009C16.0794 5.66102 16.0969 5.59686 16.101 5.53126C16.1052 5.46566 16.096 5.3999 16.0739 5.33775C16.0518 5.27559 16.0173 5.21826 15.9724 5.16901C15.9274 5.11977 15.8729 5.07958 15.8119 5.05074C15.7509 5.02191 15.6846 5.00499 15.6169 5.00095C15.5491 4.99691 15.4812 5.00583 15.417 5.0272C15.3528 5.04857 15.2936 5.08198 15.2427 5.12551C14.9583 5.31937 14.7245 5.57477 14.5598 5.87142C14.3951 6.16807 14.3042 6.49781 14.2941 6.83445C14.3045 7.17089 14.3957 7.50036 14.5603 7.79679C14.725 8.09323 14.9586 8.3485 15.2427 8.5424C15.6367 8.87989 15.8433 9.07588 15.8433 9.49486C15.8433 9.91385 15.6393 10.1138 15.2427 10.4598C14.9585 10.6536 14.7249 10.9087 14.5602 11.2051C14.3956 11.5015 14.3045 11.8309 14.2941 12.1673C14.3148 12.8493 14.6659 13.4822 15.2427 13.8752C15.3454 13.9631 15.48 14.0079 15.6169 13.9998C15.7537 13.9916 15.8816 13.9312 15.9724 13.8317C16.0632 13.7323 16.1095 13.602 16.101 13.4695C16.0926 13.337 16.0302 13.2132 15.9275 13.1252C15.5438 12.7978 15.3269 12.5913 15.3269 12.1673C15.3269 11.7433 15.5438 11.5373 15.9404 11.1968ZM19.0387 11.1968C19.3207 11.0032 19.5522 10.7486 19.7146 10.4531C19.8771 10.1576 19.966 9.8295 19.9744 9.49486C19.9653 9.15928 19.8747 8.83048 19.7099 8.53513C19.5451 8.23978 19.3107 7.98619 19.0258 7.79492C18.6421 7.46443 18.4252 7.25794 18.4252 6.83445C18.4252 6.41097 18.6421 6.20398 19.0258 5.87549C19.0766 5.83196 19.1181 5.77915 19.1479 5.72009C19.1777 5.66102 19.1952 5.59686 19.1993 5.53126C19.2035 5.46566 19.1943 5.3999 19.1722 5.33775C19.1502 5.27559 19.1157 5.21826 19.0707 5.16901C19.0257 5.11977 18.9712 5.07958 18.9102 5.05074C18.8492 5.02191 18.7829 5.00499 18.7152 5.00095C18.6474 4.99691 18.5795 5.00583 18.5153 5.0272C18.4511 5.04857 18.3919 5.08198 18.341 5.12551C18.0566 5.31937 17.8228 5.57477 17.6581 5.87142C17.4935 6.16807 17.4025 6.49781 17.3924 6.83445C17.4028 7.17089 17.494 7.50036 17.6586 7.79679C17.8233 8.09323 18.0569 8.3485 18.341 8.5424C18.735 8.87989 18.9416 9.07588 18.9416 9.49486C18.9416 9.91385 18.7376 10.1138 18.341 10.4598C18.0568 10.6536 17.8232 10.9087 17.6585 11.2051C17.4939 11.5015 17.4028 11.8309 17.3924 12.1673C17.4131 12.8493 17.7642 13.4822 18.341 13.8752C18.4438 13.9631 18.5783 14.0079 18.7152 13.9998C18.852 13.9916 18.9799 13.9312 19.0707 13.8317C19.1615 13.7323 19.2078 13.602 19.1993 13.4695C19.1909 13.337 19.1285 13.2132 19.0258 13.1252C18.6421 12.7978 18.4252 12.5913 18.4252 12.1673C18.4252 11.7433 18.6421 11.5373 19.0387 11.1968Z" fill="#40382A"/>
</svg>
