<svg xmlns="http://www.w3.org/2000/svg" fill="none" viewBox="0 0 40 40"><path fill="#fff" fill-rule="evenodd" d="M40 20c0 11.046-8.954 20-20 20S0 31.046 0 20 8.954 0 20 0s20 8.954 20 20ZM7.466 11.52h25.02l-9.834 10.24a3.711 3.711 0 0 1-5.353 0L7.466 11.52Zm-.574 16.238V12.225l7.575 7.735-7.575 7.798Zm18.679-7.767 7.537 7.767V12.225l-7.537 7.766Zm-5.595 3.695a4.52 4.52 0 0 0 3.244-1.382l1.668-1.737 7.598 7.911H7.466l7.598-7.911 1.668 1.737a4.519 4.519 0 0 0 3.244 1.382Z" clip-rule="evenodd"/></svg>