<svg xmlns="http://www.w3.org/2000/svg" fill="none" viewBox="0 0 40 40"><g clip-path="url(#a)"><path fill="#fff" fill-rule="evenodd" d="M40 20c0 11.046-8.954 20-20 20S0 31.046 0 20 8.954 0 20 0s20 8.954 20 20Zm-26.051 2.089L9.35 20.374c-.468-.156-.468-.857 0-1.013l18.938-7.326c.39-.156.779.234.701.624l-3.43 16.366c-.077.39-.545.545-.856.311l-4.599-3.35c-.311-.235-.7-.235-.935 0l-2.572 2.104c-.311.233-.779.155-.857-.234l-1.792-5.767Zm10.599-6.39-9.04 5.532c-.39.156-.546.624-.312 1.013l.935 3.43c.078.311.468.233.468 0l.233-1.87c0-.39.234-.702.468-.936l7.404-6.936c.155-.078 0-.312-.156-.234Z" clip-rule="evenodd"/></g><defs><clipPath id="a"><path fill="#fff" d="M0 0h40v40H0z"/></clipPath></defs></svg>