<svg xmlns="http://www.w3.org/2000/svg" fill="none" viewBox="0 0 40 40"><g clip-path="url(#a)"><path fill="#fff" fill-rule="evenodd" d="M40 20c0 11.046-8.954 20-20 20S0 31.046 0 20 8.954 0 20 0s20 8.954 20 20Zm-25.327-9.454a30.984 30.984 0 0 1 11.58 0c1.687.364 3.812 2.402 4.252 3.93.66 3.13.66 6.333 0 9.463-.366 1.601-2.492 3.64-4.178 4.003-2.199.364-4.471.583-6.67.51-.073 0-.146.073-.146.073-.294.29-2.053 2.11-2.053 2.11l-2.199 2.257c-.146.218-.44.073-.44-.146v-4.585c0-.073-.073-.146-.146-.146-1.613-.364-3.738-2.402-4.178-4.003-.66-3.13-.66-6.333 0-9.463.366-1.601 2.492-3.64 4.178-4.003Zm10.115 15.358c.733-.364 1.173-.946 1.54-1.674.146-.364.073-.728-.147-.873a10.423 10.423 0 0 0-.55-.4c-.183-.128-.367-.255-.55-.401-.183-.122-.354-.243-.518-.36-.228-.162-.441-.314-.655-.44-.44-.219-.88-.219-1.246.072-.128.102-.24.24-.35.38-.207.258-.416.52-.75.566-.366 0-.586-.072-.879-.218-1.686-.728-2.785-2.038-3.372-3.712-.073-.219-.073-.437.074-.655.05-.102.138-.168.21-.223a.87.87 0 0 0 .083-.068c.147-.146.22-.219.366-.292.514-.364.587-.946.294-1.455-.44-.801-1.027-1.529-1.613-2.257-.293-.291-.66-.437-1.026-.218-.513.218-.953.51-1.32.946-.366.437-.732 1.02-.512 1.601.167.5.377.956.597 1.434l.209.459a17.504 17.504 0 0 0 2.419 3.64c1.759 1.892 3.958 3.202 6.303 4.148.22.073.44.146.733.219l.66-.219Zm-1.98-7.497c.074.218.148.364.44.364.147 0 .22-.146.22-.291v-.291c-.146-1.383-1.026-2.038-2.198-2.111-.147 0-.367.145-.367.291 0 .218.073.364.293.437.22 0 .367 0 .587.072l.44.219c.293.218.44.51.513.8.073.146.073.365.073.51Zm-1.465-3.203c.44.073.806.219 1.173.364.586.292 1.1.728 1.539 1.383.293.583.44 1.238.44 1.893 0 .036.018.09.036.145.019.055.037.11.037.146.073.364.586.291.66 0v-.946c-.22-1.456-.953-2.548-2.273-3.203-.66-.291-1.319-.437-2.052-.51-.22-.072-.366.073-.366.292-.074.218.073.364.293.364.073 0 .165.018.256.036.092.018.184.036.257.036Zm4.764 4.295c0 .218.147.437.367.437s.366-.219.22-.437c0-.582-.074-1.092-.147-1.601-.513-3.058-3.078-5.096-6.157-5.168h-.146c-.22 0-.44.218-.367.436.073.291.367.291.586.291.154.039.328.057.512.076.166.017.34.035.514.07 2.273.364 4.178 2.257 4.472 4.586.073.436.146.873.146 1.31Z" clip-rule="evenodd"/></g><defs><clipPath id="a"><path fill="#fff" d="M0 0h40v40H0z"/></clipPath></defs></svg>