<svg xmlns="http://www.w3.org/2000/svg" fill="none" viewBox="0 0 40 40"><g clip-path="url(#a)"><path fill="#fff" fill-rule="evenodd" d="M40 20c0 11.046-8.954 20-20 20S0 31.046 0 20 8.954 0 20 0s20 8.954 20 20ZM20.537 9c2.78 0 5.414 1.094 7.39 3.063 1.975 1.968 3 4.593 3.073 7.291 0 5.76-4.683 10.427-10.463 10.427-1.756 0-3.44-.437-4.976-1.24L10 30l1.463-5.396a10.543 10.543 0 0 1-1.39-5.177C10.073 13.667 14.756 9 20.537 9Zm3.292 15.385c.512-.073 1.537-.656 1.756-1.24.22-.582.22-1.093.147-1.312-.073-.073-.22-.145-.512-.291-.22-.146-1.537-.802-1.757-.875-.22-.073-.439-.146-.585.145-.146.292-.659.875-.805 1.021-.146.146-.293.22-.585.073a5.612 5.612 0 0 0-.168-.078c-.374-.17-1.085-.492-1.954-1.234-.805-.73-1.317-1.532-1.464-1.823-.146-.219 0-.365.147-.51.03-.03.073-.086.123-.15.071-.092.157-.203.243-.288a1.52 1.52 0 0 0 .292-.437.463.463 0 0 0 0-.438c-.048-.048-.287-.634-.506-1.174-.115-.28-.224-.548-.299-.722-.196-.456-.392-.446-.536-.44a.941.941 0 0 1-.049.003h-.512c-.22 0-.512 0-.732.291-.029.039-.066.082-.107.132-.275.327-.77.917-.77 2.056 0 1.312.95 2.552 1.097 2.698l.015.023c.225.34 1.887 2.85 4.448 3.914.408.204.78.336 1.093.447.136.048.26.092.37.137.586.145 1.171.145 1.61.072Z" clip-rule="evenodd"/></g><defs><clipPath id="a"><path fill="#fff" d="M0 0h40v40H0z"/></clipPath></defs></svg>