<svg xmlns="http://www.w3.org/2000/svg" fill="none" viewBox="0 0 40 40"><path fill="#D15F5F" d="M20 40c11.046 0 20-8.954 20-20S31.046 0 20 0 0 8.954 0 20s8.954 20 20 20Z"/><path fill="#fff" d="M6.892 12.225v15.533l7.575-7.798-7.575-7.735ZM33.108 12.225v15.533l-7.537-7.767 7.537-7.766ZM7.466 11.52h25.02l-9.834 10.24a3.711 3.711 0 0 1-5.353 0L7.466 11.52Z"/><path fill="#fff" d="M23.22 22.304a4.52 4.52 0 0 1-3.244 1.382c-1.218 0-2.4-.504-3.244-1.382l-1.668-1.737-7.598 7.911h25.02l-7.598-7.911-1.668 1.737Z"/></svg>