<svg width="193" height="87" viewBox="0 0 193 87" fill="none" xmlns="http://www.w3.org/2000/svg">
<path fill-rule="evenodd" clip-rule="evenodd" d="M50.1402 2.70314C57.4909 4.422 63.4304 8.93748 69.3524 13.6263C75.0137 18.1088 80.0499 22.9393 83.6275 29.2173C88.0389 36.9585 95.2425 45.4298 92.2621 53.8287C89.2737 62.2499 77.1719 62.1871 70.028 67.5406C62.7213 73.0162 58.9214 82.9096 50.1402 85.3944C40.1495 88.2214 28.5946 87.5091 19.9822 81.7018C11.2598 75.8204 6.48333 65.2645 4.8542 54.8587C3.36818 45.3669 8.32821 36.607 11.5028 27.5409C14.5873 18.7323 15.2387 7.84771 23.081 2.80637C30.8627 -2.19608 41.1361 0.597667 50.1402 2.70314Z" fill="#688101"/>
<path d="M23.9164 83.8933C24.9521 84.7564 32.1662 84.8421 36.2542 82.5969C40.3422 80.316 43.6234 77.2511 46.0977 73.4022C48.572 69.5176 49.8092 65.1519 49.8092 60.305C49.8092 56.7055 49.1458 53.3021 47.819 50.0946C46.528 46.8515 44.6095 44.0361 42.0635 41.6483C39.5175 39.2249 36.3977 37.4786 32.7041 36.4094L48.4107 21.2809V7.5957H0V21.2809H31.0904L10.22 38.4943L16.7824 49.9342C18.7188 48.7938 20.7269 48.2236 22.8068 48.2236C26.3569 48.2236 29.2616 49.4175 31.5207 51.8053C33.8158 54.1574 34.9633 56.9907 34.9633 60.305C34.9633 62.5146 34.4074 64.5282 33.2958 66.3458C32.22 68.1633 30.7497 69.6067 28.885 70.6758C27.0562 71.745 25.0301 72.2796 22.8068 72.2796C20.2249 72.2796 17.8223 71.5133 15.599 69.9809C13.4116 68.4128 11.9413 66.221 11.1882 63.4056L7.34493 64.56C8.55326 67.6671 8.72588 68.0124 10.4521 71.2921C12.1783 74.2267 14.2497 76.6924 15.599 78.0243C18.0473 80.4409 19.7735 82.3398 23.9164 83.8933Z" fill="white"/>
<path d="M64.6544 34.8205H70.9706V7.28427H86.4822V1.38696H64.6544V34.8205Z" fill="white"/>
<path d="M106.397 35.5171C109.741 35.5171 112.62 34.7896 115.035 33.3346C117.465 31.8796 119.331 29.8442 120.631 27.2283C121.947 24.6125 122.605 21.5709 122.605 18.1038C122.605 14.6366 121.947 11.595 120.631 8.97917C119.331 6.3633 117.465 4.32788 115.035 2.8729C112.62 1.41792 109.741 0.69043 106.397 0.69043C103.053 0.69043 100.166 1.41792 97.7353 2.8729C95.3203 4.32788 93.4549 6.3633 92.139 8.97917C90.8387 11.595 90.1885 14.6366 90.1885 18.1038C90.1885 21.5709 90.8387 24.6125 92.139 27.2283C93.4549 29.8442 95.3203 31.8796 97.7353 33.3346C100.166 34.7896 103.053 35.5171 106.397 35.5171ZM106.397 29.5733C103.223 29.5269 100.839 28.4744 99.2446 26.4157C97.6656 24.3571 96.8761 21.5864 96.8761 18.1038C96.8761 14.6211 97.6656 11.8272 99.2446 9.72214C100.839 7.61706 103.223 6.58774 106.397 6.63418C109.586 6.68061 111.97 7.73315 113.549 9.79179C115.128 11.8504 115.917 14.6211 115.917 18.1038C115.917 21.5864 115.128 24.3803 113.549 26.4854C111.97 28.5904 109.586 29.6198 106.397 29.5733Z" fill="white"/>
<path d="M126.333 40.3928H132.649V34.8205H151.923V40.3928H158.239V28.9232H155.685V1.38696L133.485 1.34053C133.253 4.73032 133.052 7.78733 132.882 10.5115C132.711 13.2203 132.51 15.9677 132.278 18.7539C132.108 20.7041 131.814 22.4455 131.396 23.9778C130.978 25.5102 130.366 26.7175 129.561 27.5998C128.756 28.4821 127.68 28.9232 126.333 28.9232V40.3928ZM135.761 28.9232C136.396 28.0874 136.868 27.2825 137.178 26.5086C137.503 25.7347 137.743 24.8292 137.897 23.7921C138.052 22.7396 138.207 21.4007 138.362 19.7754C138.517 18.1502 138.641 16.6797 138.733 15.3641C138.826 14.0484 138.904 12.7482 138.966 11.4635C139.043 10.1788 139.136 8.77021 139.244 7.23784L149.369 7.28427V28.9232H135.761Z" fill="white"/>
<path d="M162.876 34.8205H169.377L171.491 27.8552H184.076L186.236 34.8205H192.738L182.521 1.38696H173.093L162.876 34.8205ZM173.279 21.9579L177.737 7.30749L182.265 21.9579H173.279Z" fill="white"/>
<path d="M64.6683 62.8688H66.4953V46.7241H75.854V44.9717H64.6683V62.8688Z" fill="white"/>
<path d="M77.1153 62.8688H79.0169L80.5083 58.5313H88.4626L89.9664 62.8688H91.868L85.7034 44.9717H83.2799L77.1153 62.8688ZM81.1049 56.8161L84.473 47.0348L87.866 56.8161H81.1049Z" fill="white"/>
<path d="M95.1066 62.8688H96.9336V56.0704H102.017C102.183 56.0704 102.377 56.0621 102.601 56.0455C102.825 56.029 103.048 56.0041 103.272 55.971C104.664 55.7555 105.737 55.1424 106.491 54.1315C107.253 53.1207 107.635 51.9193 107.635 50.5273C107.635 49.127 107.258 47.9214 106.504 46.9105C105.75 45.8997 104.672 45.2865 103.272 45.0711C103.048 45.0297 102.825 45.0048 102.601 44.9965C102.386 44.98 102.191 44.9717 102.017 44.9717H95.1066V62.8688ZM96.9336 54.3304V46.7241H101.967C102.116 46.7241 102.29 46.7324 102.489 46.749C102.696 46.7573 102.891 46.7821 103.073 46.8235C103.993 47.0224 104.668 47.4823 105.099 48.2031C105.538 48.9157 105.758 49.6904 105.758 50.5273C105.758 51.3558 105.538 52.1305 105.099 52.8514C104.668 53.5723 103.993 54.028 103.073 54.2185C102.891 54.26 102.696 54.289 102.489 54.3055C102.29 54.3221 102.116 54.3304 101.967 54.3304H96.9336Z" fill="white"/>
<path d="M109.374 62.8688H111.276L112.767 58.5313H120.722L122.225 62.8688H124.127L117.962 44.9717H115.539L109.374 62.8688ZM113.364 56.8161L116.732 47.0348L120.125 56.8161H113.364Z" fill="white"/>
<path d="M127.366 62.8688H129.193V54.7903H139.086V62.8688H140.9V44.9717H139.086V53.0378H129.193V44.9717H127.366V62.8688Z" fill="white"/>
<path d="M150.136 62.8688H151.963V46.7241H158.215V44.9717H143.885V46.7241H150.136V62.8688Z" fill="white"/>
<path d="M174.737 62.8688H172.898V48.1907L163.042 62.8688H161.202V44.9717H163.042V59.6374L172.898 44.9717H174.737V62.8688Z" fill="white"/>
<path d="M192.748 62.8688H190.908V48.1907L181.053 62.8688H179.213V44.9717H181.053V59.6374L190.908 44.9717H192.748V62.8688Z" fill="white"/>
<path d="M64.5716 84.5763H66.2971V76.9465H75.6406V84.5763H77.3544V67.6734H75.6406V75.2915H66.2971V67.6734H64.5716V84.5763Z" fill="white"/>
<path d="M80.4079 84.5763H82.2039L83.6124 80.4797H91.1248L92.5451 84.5763H94.3411L88.519 67.6734H86.23L80.4079 84.5763ZM84.1759 78.8598L87.3569 69.622L90.5614 78.8598H84.1759Z" fill="white"/>
<path d="M105.891 84.5763H107.769L115.634 67.6734H113.791L108.696 78.719L103.696 67.6734H101.783L107.793 80.5736L105.891 84.5763Z" fill="white"/>
<path d="M123.817 84.9284C125.781 84.9284 127.386 84.4276 128.63 83.426C129.874 82.4165 130.727 81.0666 131.189 79.3763L129.428 78.9185C129.068 80.2488 128.423 81.3092 127.491 82.0996C126.56 82.8821 125.335 83.2734 123.817 83.2734C122.495 83.2734 121.388 82.9721 120.495 82.3695C119.611 81.7591 118.946 80.9179 118.5 79.8458C118.062 78.7738 117.847 77.5334 117.854 76.1249C117.87 74.7163 118.097 73.476 118.535 72.4039C118.973 71.324 119.631 70.4827 120.507 69.8802C121.391 69.2776 122.495 68.9764 123.817 68.9764C125.335 68.9764 126.56 69.3715 127.491 70.1619C128.423 70.9444 129.068 72.0009 129.428 73.3312L131.189 72.8734C130.727 71.1831 129.874 69.8372 128.63 68.8355C127.386 67.826 125.781 67.3213 123.817 67.3213C122.135 67.3213 120.715 67.693 119.556 68.4364C118.398 69.1798 117.522 70.2128 116.927 71.5353C116.332 72.8578 116.035 74.3876 116.035 76.1249C116.035 77.8543 116.332 79.3841 116.927 80.7145C117.522 82.0369 118.398 83.0699 119.556 83.8133C120.715 84.5567 122.135 84.9284 123.817 84.9284Z" fill="white"/>
<path d="M132.395 84.5763C133.185 84.7798 133.831 84.7993 134.332 84.635C134.84 84.4706 135.243 84.1694 135.541 83.7311C135.846 83.2929 136.085 82.753 136.257 82.1113C136.429 81.4696 136.574 80.7731 136.691 80.0219C137.004 78.0343 137.223 76.1601 137.348 74.3994C137.481 72.6386 137.599 70.9484 137.701 69.3285H144.978V84.5763H146.704V67.6734H136.034C135.94 69.8019 135.819 71.7974 135.67 73.6599C135.529 75.5145 135.31 77.3652 135.013 79.212C134.833 80.3545 134.653 81.2114 134.473 81.7826C134.293 82.3461 134.046 82.7099 133.733 82.8743C133.42 83.0386 132.974 83.0934 132.395 83.0386V84.5763Z" fill="white"/>
<path d="M153.775 84.5763H155.653L163.518 67.6734H161.675L156.581 78.719L151.58 67.6734H149.667L155.677 80.5736L153.775 84.5763Z" fill="white"/>
<path d="M166.489 84.5763H168.214V69.3285H177.053V67.6734H166.489V84.5763Z" fill="white"/>
<path d="M192.659 84.5763H190.922V70.7136L181.614 84.5763H179.876V67.6734H181.614V81.5244L190.922 67.6734H192.659V84.5763Z" fill="white"/>
</svg>
