<svg xmlns="http://www.w3.org/2000/svg" fill="none" viewBox="0 0 16 16"><path fill="#796D59" d="M8 5.083A2.92 2.92 0 0 0 5.083 8 2.92 2.92 0 0 0 8 10.917 2.92 2.92 0 0 0 10.917 8 2.92 2.92 0 0 0 8 5.083Zm0 5.25A2.336 2.336 0 0 1 5.667 8 2.336 2.336 0 0 1 8 5.667 2.336 2.336 0 0 1 10.333 8 2.336 2.336 0 0 1 8 10.333ZM5.375 1H2.458A1.46 1.46 0 0 0 1 2.458v2.917a.292.292 0 0 0 .583 0V2.458c0-.482.393-.875.875-.875h2.917a.292.292 0 0 0 0-.583ZM13.542 1h-2.917a.292.292 0 0 0 0 .583h2.917c.482 0 .875.393.875.875v2.917a.292.292 0 0 0 .583 0V2.458A1.46 1.46 0 0 0 13.542 1ZM5.375 14.417H2.458a.876.876 0 0 1-.875-.875v-2.917a.292.292 0 0 0-.583 0v2.917A1.46 1.46 0 0 0 2.458 15h2.917a.292.292 0 0 0 0-.583ZM14.708 10.333a.292.292 0 0 0-.291.292v2.917a.876.876 0 0 1-.875.875h-2.917a.292.292 0 0 0 0 .583h2.917A1.46 1.46 0 0 0 15 13.542v-2.917a.292.292 0 0 0-.292-.292Z"/></svg>