<svg xmlns="http://www.w3.org/2000/svg" fill="none" viewBox="0 0 16 16"><path fill="#796D59" d="M10.625 10.967a.281.281 0 0 0-.274.288c0 .16.123.288.274.288.15 0 .274-.128.274-.287a.281.281 0 0 0-.274-.289ZM8.273 5.897A.281.281 0 0 0 8 5.61a.281.281 0 0 0-.273.288c0 .16.122.288.273.288.15 0 .273-.129.273-.288ZM5.375 11.543c.15 0 .273-.128.273-.287a.281.281 0 0 0-.273-.289c-.15 0-.273.13-.273.288 0 .16.122.288.273.288Z"/><path fill="#796D59" d="m14.838 12.912-1.479-.692V5.897a.29.29 0 0 0-.168-.266L8.273 3.403V1.288A.281.281 0 0 0 8 1a.281.281 0 0 0-.273.288v2.115L2.809 5.631a.29.29 0 0 0-.168.266v6.323l-1.479.692a.294.294 0 0 0-.138.38c.06.145.222.212.36.147l1.532-.717 4.976 2.255c.066.03.146.032.216 0l4.976-2.255 1.532.717c.139.065.3-.002.36-.146a.294.294 0 0 0-.139-.38ZM7.727 4.03v.715c0 .159.122.288.273.288.15 0 .273-.129.273-.288V4.03l4.12 1.867L8 7.888l-4.394-1.99 4.12-1.868Zm-3.101 7.577a.268.268 0 0 0-.361-.147l-1.077.504v-5.63l4.539 2.058v5.883l-4.13-1.872.89-.416a.295.295 0 0 0 .139-.38Zm3.647 2.668V8.392l4.54-2.057v5.63l-1.078-.505a.268.268 0 0 0-.36.147.294.294 0 0 0 .138.38l.89.416-4.13 1.872Z"/></svg>