<svg xmlns="http://www.w3.org/2000/svg" fill="none" viewBox="0 0 16 16"><path fill="#796D59" d="M8 1C4.142 1 1 4.142 1 8s3.142 7 7 7 7-3.142 7-7-3.142-7-7-7Zm.28 13.409h-.591c-3.298-.156-5.973-2.8-6.098-6.098V7.72c.156-3.298 2.8-5.973 6.098-6.098h.591c3.298.156 5.973 2.8 6.098 6.098v.591c-.125 3.298-2.77 5.942-6.098 6.098Z"/><path fill="#796D59" d="M8.56 8.156c0-.063.031-.094.031-.156a.4.4 0 0 0-.124-.311l1.835-3.92c.062-.156 0-.311-.155-.373-.156-.063-.311 0-.374.155l-1.835 3.92c-.28.031-.53.28-.53.56A.59.59 0 0 0 8 8.622c.062 0 .093-.03.156-.03l2.27 2.27a.283.283 0 0 0 .218.094.337.337 0 0 0 .218-.094c.125-.124.125-.31 0-.404L8.56 8.156Z"/></svg>