<svg width="151" height="47" viewBox="0 0 151 47" fill="none" xmlns="http://www.w3.org/2000/svg">
<path d="M0 0H151V47H0L13.08 35.1263L25.16 23.2526L13.08 11.6263L0 0Z" fill="#04CA00"/>
<g clip-path="url(#clip0_659_1173)">
<path d="M139.569 3.1543C140.095 3.44457 142.408 6.12952 144.313 8.66934C147.877 13.4315 150.172 17.7674 150.952 21.2505C151.243 22.5567 151.243 24.9061 150.943 26.303C150.544 28.1806 149.855 29.4959 148.685 30.5935C147.125 32.0539 145.084 32.7704 141.773 33.0244C141.102 33.0698 140.494 33.1151 140.43 33.1151C140.349 33.1151 140.322 33.614 140.322 35.2921C140.322 37.3058 140.303 37.5054 140.14 37.832C139.931 38.2401 139.414 38.5576 138.961 38.5576C138.507 38.5576 137.99 38.2401 137.782 37.832C137.618 37.5054 137.6 37.3058 137.6 35.3012V33.1333L136.802 33.0789C132.865 32.8067 130.87 32.1446 129.219 30.5844C128.058 29.4778 127.377 28.1716 126.978 26.303C126.688 24.9424 126.688 22.5749 126.969 21.2596C127.94 16.8058 131.804 10.3565 137.047 4.45142C138.108 3.25408 138.444 3.0001 138.961 3.0001C139.133 3.0001 139.414 3.07266 139.569 3.1543ZM137.845 7.71691C134.843 11.3452 132.212 15.3182 130.861 18.2662C129.781 20.6247 129.364 22.4025 129.473 24.2167C129.7 28.3439 131.414 29.895 136.194 30.3032C136.793 30.3485 137.355 30.3939 137.437 30.3939C137.591 30.3939 137.6 30.2488 137.6 28.5979V26.8109L135.051 24.2711C133.654 22.8742 132.43 21.5771 132.33 21.3957C132.112 20.9603 132.112 20.5884 132.339 20.1439C132.657 19.518 133.464 19.255 134.09 19.5634C134.253 19.645 135.106 20.4251 135.986 21.305L137.6 22.9105V20.7789V18.6472L136.412 17.468C134.843 15.9078 134.652 15.5087 135.06 14.7014C135.269 14.2932 135.786 13.9758 136.24 13.9758C136.693 13.9758 137.047 14.2116 138.027 15.1822L138.961 16.1074L139.886 15.1822C140.875 14.2116 141.229 13.9758 141.682 13.9758C142.136 13.9758 142.653 14.2932 142.861 14.7014C143.27 15.5087 143.079 15.9078 141.51 17.468L140.322 18.6472V20.7789V22.9105L141.927 21.305C142.816 20.4251 143.669 19.645 143.832 19.5634C144.458 19.255 145.265 19.518 145.583 20.1439C145.809 20.5884 145.809 20.9603 145.592 21.3957C145.492 21.5771 144.267 22.8742 142.87 24.2711L140.322 26.8109V28.607V30.412L141.111 30.3485C145.029 30.0583 146.862 29.2328 147.76 27.3552C148.385 26.049 148.639 23.7722 148.358 22.1395C147.723 18.5112 144.757 13.3771 139.931 7.55364C139.433 6.94589 138.988 6.447 138.952 6.447C138.925 6.447 138.417 7.01846 137.845 7.71691Z" fill="white"/>
<path d="M157.03 6.45597C157.293 6.59203 157.565 6.92765 158.182 7.86195C160.259 10.9823 161.475 14.2115 162.019 18.0122C162.2 19.2639 162.164 22.6655 161.964 23.9989C161.756 25.3686 161.212 27.5456 160.776 28.7248C160.005 30.8201 158.644 33.2602 157.211 35.1015C156.477 36.054 154.399 38.1493 153.474 38.8841C151.596 40.3626 149.048 41.8049 146.907 42.594C145.728 43.0294 143.551 43.5737 142.181 43.7823C140.848 43.9819 137.373 44.0181 136.104 43.8367C132.865 43.3741 129.845 42.3491 127.269 40.8343C127.015 40.6801 126.779 40.5531 126.761 40.5531C126.733 40.5531 126.715 41.0883 126.715 41.7323C126.715 42.7392 126.688 42.975 126.534 43.2743C126.325 43.6825 125.808 44 125.355 44C124.901 44 124.384 43.6825 124.175 43.2653C123.994 42.9206 123.985 42.7754 124.012 40.1449C124.039 37.5235 124.048 37.3783 124.23 37.1425C124.565 36.6889 124.865 36.5257 125.355 36.5257C125.717 36.5257 125.881 36.5801 126.189 36.8159C128.23 38.3489 130.425 39.5281 132.484 40.2175C139.088 42.4126 146.308 41.1155 151.778 36.7524C156.05 33.3418 158.871 28.117 159.37 22.6383C159.787 18.0575 158.563 13.3135 155.95 9.39491C155.551 8.79624 155.179 8.21571 155.116 8.10686C154.853 7.59889 155.17 6.73717 155.742 6.43783C156.141 6.22013 156.604 6.2292 157.03 6.45597Z" fill="white"/>
</g>
<path d="M42.289 8.234C43.0077 8.234 43.6567 8.40267 44.236 8.74C44.8227 9.07733 45.281 9.54667 45.611 10.148C45.9483 10.742 46.117 11.4093 46.117 12.15C46.117 12.8907 45.9483 13.5617 45.611 14.163C45.281 14.757 44.8227 15.2227 44.236 15.56C43.6567 15.8973 43.0077 16.066 42.289 16.066C41.6877 16.066 41.1377 15.9707 40.639 15.78C40.1403 15.5893 39.7223 15.307 39.385 14.933L39.891 14.416C40.4997 15.032 41.288 15.34 42.256 15.34C42.7987 15.34 43.2937 15.2153 43.741 14.966C44.1883 14.7093 44.5477 14.361 44.819 13.921C45.0977 13.4737 45.2553 12.9713 45.292 12.414H41.321V11.743H45.281C45.2223 11.2077 45.0537 10.731 44.775 10.313C44.5037 9.88767 44.148 9.55767 43.708 9.323C43.268 9.081 42.784 8.96 42.256 8.96C41.288 8.96 40.4997 9.268 39.891 9.884L39.385 9.367C39.7223 8.993 40.1403 8.71067 40.639 8.52C41.1377 8.32933 41.6877 8.234 42.289 8.234ZM49.9786 13.426H48.6586V16H47.8776V10.214H48.6586V12.755H49.9896L52.0246 10.214H52.8716L50.5946 13.019L53.0366 16H52.1126L49.9786 13.426ZM56.4521 16.055C55.8948 16.055 55.3924 15.9303 54.9451 15.681C54.4978 15.4243 54.1458 15.0723 53.8891 14.625C53.6324 14.1777 53.5041 13.6717 53.5041 13.107C53.5041 12.5423 53.6324 12.0363 53.8891 11.589C54.1458 11.1417 54.4978 10.7933 54.9451 10.544C55.3924 10.2947 55.8948 10.17 56.4521 10.17C57.0094 10.17 57.5118 10.2947 57.9591 10.544C58.4064 10.7933 58.7548 11.1417 59.0041 11.589C59.2608 12.0363 59.3891 12.5423 59.3891 13.107C59.3891 13.6717 59.2608 14.1777 59.0041 14.625C58.7548 15.0723 58.4064 15.4243 57.9591 15.681C57.5118 15.9303 57.0094 16.055 56.4521 16.055ZM56.4521 15.362C56.8628 15.362 57.2294 15.2703 57.5521 15.087C57.8821 14.8963 58.1388 14.6287 58.3221 14.284C58.5054 13.9393 58.5971 13.547 58.5971 13.107C58.5971 12.667 58.5054 12.2747 58.3221 11.93C58.1388 11.5853 57.8821 11.3213 57.5521 11.138C57.2294 10.9473 56.8628 10.852 56.4521 10.852C56.0414 10.852 55.6711 10.9473 55.3411 11.138C55.0184 11.3213 54.7618 11.5853 54.5711 11.93C54.3878 12.2747 54.2961 12.667 54.2961 13.107C54.2961 13.547 54.3878 13.9393 54.5711 14.284C54.7618 14.6287 55.0184 14.8963 55.3411 15.087C55.6711 15.2703 56.0414 15.362 56.4521 15.362ZM65.756 10.214V16H64.975V10.907H62.203L62.126 12.337C62.0674 13.5397 61.928 14.4637 61.708 15.109C61.488 15.7543 61.0957 16.077 60.531 16.077C60.377 16.077 60.19 16.0477 59.97 15.989L60.025 15.318C60.157 15.3473 60.2487 15.362 60.3 15.362C60.6007 15.362 60.828 15.2227 60.982 14.944C61.136 14.6653 61.2387 14.3207 61.29 13.91C61.3414 13.4993 61.3854 12.9567 61.422 12.282L61.521 10.214H65.756ZM70.3632 16.055C69.8059 16.055 69.3036 15.9303 68.8562 15.681C68.4089 15.4243 68.0569 15.0723 67.8002 14.625C67.5436 14.1777 67.4152 13.6717 67.4152 13.107C67.4152 12.5423 67.5436 12.0363 67.8002 11.589C68.0569 11.1417 68.4089 10.7933 68.8562 10.544C69.3036 10.2947 69.8059 10.17 70.3632 10.17C70.9206 10.17 71.4229 10.2947 71.8702 10.544C72.3176 10.7933 72.6659 11.1417 72.9152 11.589C73.1719 12.0363 73.3002 12.5423 73.3002 13.107C73.3002 13.6717 73.1719 14.1777 72.9152 14.625C72.6659 15.0723 72.3176 15.4243 71.8702 15.681C71.4229 15.9303 70.9206 16.055 70.3632 16.055ZM70.3632 15.362C70.7739 15.362 71.1406 15.2703 71.4632 15.087C71.7932 14.8963 72.0499 14.6287 72.2332 14.284C72.4166 13.9393 72.5082 13.547 72.5082 13.107C72.5082 12.667 72.4166 12.2747 72.2332 11.93C72.0499 11.5853 71.7932 11.3213 71.4632 11.138C71.1406 10.9473 70.7739 10.852 70.3632 10.852C69.9526 10.852 69.5822 10.9473 69.2522 11.138C68.9296 11.3213 68.6729 11.5853 68.4822 11.93C68.2989 12.2747 68.2072 12.667 68.2072 13.107C68.2072 13.547 68.2989 13.9393 68.4822 14.284C68.6729 14.6287 68.9296 14.8963 69.2522 15.087C69.5822 15.2703 69.9526 15.362 70.3632 15.362ZM79.0614 10.907H75.7504V16H74.9694V10.214H79.0614V10.907ZM80.1901 10.214H80.9711V14.812L84.8321 10.214H85.5251V16H84.7441V11.402L80.8941 16H80.1901V10.214ZM92.1303 10.214V16H91.3493V13.591C90.682 13.8843 90.0257 14.031 89.3803 14.031C88.6837 14.031 88.141 13.8733 87.7523 13.558C87.3637 13.2353 87.1693 12.755 87.1693 12.117V10.214H87.9503V12.073C87.9503 12.5057 88.0897 12.8357 88.3683 13.063C88.647 13.283 89.032 13.393 89.5233 13.393C90.066 13.393 90.6747 13.25 91.3493 12.964V10.214H92.1303ZM94.3483 10.214H95.1293V12.777H98.7703V10.214H99.5513V16H98.7703V13.448H95.1293V16H94.3483V10.214ZM104.158 16.055C103.601 16.055 103.098 15.9303 102.651 15.681C102.204 15.4243 101.852 15.0723 101.595 14.625C101.338 14.1777 101.21 13.6717 101.21 13.107C101.21 12.5423 101.338 12.0363 101.595 11.589C101.852 11.1417 102.204 10.7933 102.651 10.544C103.098 10.2947 103.601 10.17 104.158 10.17C104.715 10.17 105.218 10.2947 105.665 10.544C106.112 10.7933 106.461 11.1417 106.71 11.589C106.967 12.0363 107.095 12.5423 107.095 13.107C107.095 13.6717 106.967 14.1777 106.71 14.625C106.461 15.0723 106.112 15.4243 105.665 15.681C105.218 15.9303 104.715 16.055 104.158 16.055ZM104.158 15.362C104.569 15.362 104.935 15.2703 105.258 15.087C105.588 14.8963 105.845 14.6287 106.028 14.284C106.211 13.9393 106.303 13.547 106.303 13.107C106.303 12.667 106.211 12.2747 106.028 11.93C105.845 11.5853 105.588 11.3213 105.258 11.138C104.935 10.9473 104.569 10.852 104.158 10.852C103.747 10.852 103.377 10.9473 103.047 11.138C102.724 11.3213 102.468 11.5853 102.277 11.93C102.094 12.2747 102.002 12.667 102.002 13.107C102.002 13.547 102.094 13.9393 102.277 14.284C102.468 14.6287 102.724 14.8963 103.047 15.087C103.377 15.2703 103.747 15.362 104.158 15.362Z" fill="white"/>
<path d="M48.386 20.8V39H42.25V25.428H39.13V20.8H48.386ZM58.8632 39.416C57.2512 39.416 55.8212 39.0433 54.5732 38.298C53.3425 37.5353 52.3719 36.4433 51.6612 35.022C50.9679 33.5833 50.6212 31.876 50.6212 29.9C50.6212 27.924 50.9679 26.2253 51.6612 24.804C52.3719 23.3653 53.3425 22.2733 54.5732 21.528C55.8212 20.7653 57.2512 20.384 58.8632 20.384C60.4752 20.384 61.8965 20.7653 63.1272 21.528C64.3752 22.2733 65.3459 23.3653 66.0392 24.804C66.7499 26.2253 67.1052 27.924 67.1052 29.9C67.1052 31.876 66.7499 33.5833 66.0392 35.022C65.3459 36.4433 64.3752 37.5353 63.1272 38.298C61.8965 39.0433 60.4752 39.416 58.8632 39.416ZM58.8632 34.502C60.2499 34.502 60.9432 32.968 60.9432 29.9C60.9432 26.832 60.2499 25.298 58.8632 25.298C57.4765 25.298 56.7832 26.832 56.7832 29.9C56.7832 32.968 57.4765 34.502 58.8632 34.502ZM76.8651 39.416C75.2531 39.416 73.8231 39.0433 72.5751 38.298C71.3445 37.5353 70.3738 36.4433 69.6631 35.022C68.9698 33.5833 68.6231 31.876 68.6231 29.9C68.6231 27.924 68.9698 26.2253 69.6631 24.804C70.3738 23.3653 71.3445 22.2733 72.5751 21.528C73.8231 20.7653 75.2531 20.384 76.8651 20.384C78.4771 20.384 79.8985 20.7653 81.1291 21.528C82.3771 22.2733 83.3478 23.3653 84.0411 24.804C84.7518 26.2253 85.1071 27.924 85.1071 29.9C85.1071 31.876 84.7518 33.5833 84.0411 35.022C83.3478 36.4433 82.3771 37.5353 81.1291 38.298C79.8985 39.0433 78.4771 39.416 76.8651 39.416ZM76.8651 34.502C78.2518 34.502 78.9451 32.968 78.9451 29.9C78.9451 26.832 78.2518 25.298 76.8651 25.298C75.4785 25.298 74.7851 26.832 74.7851 29.9C74.7851 32.968 75.4785 34.502 76.8651 34.502ZM91.1231 30.68C89.7018 30.68 88.5404 30.2293 87.6391 29.328C86.7378 28.4267 86.2871 27.1873 86.2871 25.61C86.2871 24.5527 86.4951 23.6427 86.9111 22.88C87.3271 22.1173 87.8991 21.5367 88.6271 21.138C89.3724 20.7393 90.2044 20.54 91.1231 20.54C92.0418 20.54 92.8651 20.7393 93.5931 21.138C94.3384 21.5367 94.9191 22.1173 95.3351 22.88C95.7511 23.6427 95.9591 24.5527 95.9591 25.61C95.9591 27.1873 95.5084 28.4267 94.6071 29.328C93.7058 30.2293 92.5444 30.68 91.1231 30.68ZM101.809 20.8H106.203L93.7751 39H89.3811L101.809 20.8ZM91.1231 27.872C91.4524 27.872 91.7211 27.6987 91.9291 27.352C92.1544 26.988 92.2671 26.4073 92.2671 25.61C92.2671 24.8127 92.1544 24.2407 91.9291 23.894C91.7211 23.53 91.4524 23.348 91.1231 23.348C90.7938 23.348 90.5164 23.53 90.2911 23.894C90.0831 24.2407 89.9791 24.8127 89.9791 25.61C89.9791 26.4073 90.0831 26.988 90.2911 27.352C90.5164 27.6987 90.7938 27.872 91.1231 27.872ZM104.461 39.26C103.04 39.26 101.878 38.8093 100.977 37.908C100.076 37.0067 99.6251 35.7673 99.6251 34.19C99.6251 33.1327 99.8331 32.2227 100.249 31.46C100.665 30.6973 101.237 30.1167 101.965 29.718C102.71 29.3193 103.542 29.12 104.461 29.12C105.38 29.12 106.203 29.3193 106.931 29.718C107.676 30.1167 108.257 30.6973 108.673 31.46C109.089 32.2227 109.297 33.1327 109.297 34.19C109.297 35.7673 108.846 37.0067 107.945 37.908C107.044 38.8093 105.882 39.26 104.461 39.26ZM104.461 36.452C104.79 36.452 105.059 36.2787 105.267 35.932C105.492 35.568 105.605 34.9873 105.605 34.19C105.605 33.3927 105.492 32.8207 105.267 32.474C105.059 32.11 104.79 31.928 104.461 31.928C104.132 31.928 103.854 32.11 103.629 32.474C103.421 32.8207 103.317 33.3927 103.317 34.19C103.317 34.9873 103.421 35.568 103.629 35.932C103.854 36.2787 104.132 36.452 104.461 36.452Z" fill="white"/>
<defs>
<clipPath id="clip0_659_1173">
<rect width="34" height="47" fill="white" transform="matrix(-1 0 0 1 151 0)"/>
</clipPath>
</defs>
</svg>
