<svg width="151" height="47" viewBox="0 0 151 47" fill="none" xmlns="http://www.w3.org/2000/svg">
<path d="M151 0H0V47H151L126.84 23.2526L151 0Z" fill="#F52942"/>
<path d="M44 19.7143C48.0833 19.7143 51.0972 20.5546 53.0417 22.2353C55.0139 23.916 56 26.1569 56 28.958C56 30.7787 55.5278 32.4594 54.5833 34C53.6667 35.5126 52.25 36.7311 50.3333 37.6555C48.4444 38.5518 46.0972 39 43.2917 39C41.2361 39 39.1944 38.7479 37.1667 38.2437C35.1667 37.7395 33.4444 37.0252 32 36.1008L34.9583 29.8403C36.125 30.6246 37.4028 31.2269 38.7917 31.6471C40.2083 32.0672 41.625 32.2773 43.0417 32.2773C44.4583 32.2773 45.5833 32.0112 46.4167 31.479C47.2778 30.9188 47.7083 30.1485 47.7083 29.1681C47.7083 28.1877 47.2917 27.4454 46.4583 26.9412C45.625 26.437 44.1528 26.1849 42.0417 26.1849H34.125L35.5833 9H54.1667V15.4286H42.4167L42.0417 19.7143H44Z" fill="white"/>
<path d="M75.56 9V23H71.66V12.14H67.64L67.56 14.42C67.4933 16.42 67.3267 18.0467 67.06 19.3C66.8067 20.5533 66.3667 21.5267 65.74 22.22C65.1133 22.9 64.2267 23.24 63.08 23.24C62.5467 23.24 61.9467 23.16 61.28 23L61.5 19.76C61.6733 19.8 61.8533 19.82 62.04 19.82C62.56 19.82 62.96 19.6133 63.24 19.2C63.52 18.7867 63.72 18.2133 63.84 17.48C63.96 16.7333 64.04 15.7667 64.08 14.58L64.28 9H75.56ZM89.7947 19.94V23H78.5547V9H89.5347V12.06H82.4747V14.42H88.6947V17.38H82.4747V19.94H89.7947ZM103.331 12.14H99.0508V23H95.1508V12.14H90.8508V9H103.331V12.14Z" fill="white"/>
<path d="M67.149 30.981H63.236V37H62.313V30.162H67.149V30.981ZM70.8359 30.11C71.7286 30.11 72.4133 30.3353 72.8899 30.786C73.3666 31.228 73.6049 31.8867 73.6049 32.762V37H72.7209V35.934C72.5129 36.2893 72.2053 36.5667 71.7979 36.766C71.3993 36.9653 70.9226 37.065 70.3679 37.065C69.6053 37.065 68.9986 36.883 68.5479 36.519C68.0973 36.155 67.8719 35.674 67.8719 35.076C67.8719 34.4953 68.0799 34.0273 68.4959 33.672C68.9206 33.3167 69.5923 33.139 70.5109 33.139H72.6819V32.723C72.6819 32.1337 72.5173 31.6873 72.1879 31.384C71.8586 31.072 71.3776 30.916 70.7449 30.916C70.3116 30.916 69.8956 30.9897 69.4969 31.137C69.0983 31.2757 68.7559 31.4707 68.4699 31.722L68.0539 31.033C68.4006 30.7383 68.8166 30.513 69.3019 30.357C69.7873 30.1923 70.2986 30.11 70.8359 30.11ZM70.5109 36.337C71.0309 36.337 71.4773 36.22 71.8499 35.986C72.2226 35.7433 72.4999 35.3967 72.6819 34.946V33.828H70.5369C69.3669 33.828 68.7819 34.2353 68.7819 35.05C68.7819 35.4487 68.9336 35.765 69.2369 35.999C69.5403 36.2243 69.9649 36.337 70.5109 36.337ZM79.585 30.11C80.2264 30.11 80.807 30.2573 81.327 30.552C81.847 30.838 82.2544 31.2453 82.549 31.774C82.8437 32.3027 82.991 32.905 82.991 33.581C82.991 34.2657 82.8437 34.8723 82.549 35.401C82.2544 35.9297 81.847 36.3413 81.327 36.636C80.8157 36.922 80.235 37.065 79.585 37.065C79.0304 37.065 78.5277 36.9523 78.077 36.727C77.635 36.493 77.271 36.155 76.985 35.713V39.522H76.062V30.162H76.946V31.514C77.2234 31.0633 77.5874 30.7167 78.038 30.474C78.4974 30.2313 79.013 30.11 79.585 30.11ZM79.52 36.246C79.9967 36.246 80.43 36.1377 80.82 35.921C81.21 35.6957 81.5134 35.3793 81.73 34.972C81.9554 34.5647 82.068 34.101 82.068 33.581C82.068 33.061 81.9554 32.6017 81.73 32.203C81.5134 31.7957 81.21 31.4793 80.82 31.254C80.43 31.0287 79.9967 30.916 79.52 30.916C79.0347 30.916 78.597 31.0287 78.207 31.254C77.8257 31.4793 77.5224 31.7957 77.297 32.203C77.0804 32.6017 76.972 33.061 76.972 33.581C76.972 34.101 77.0804 34.5647 77.297 34.972C77.5224 35.3793 77.8257 35.6957 78.207 35.921C78.597 36.1377 79.0347 36.246 79.52 36.246ZM87.289 30.11C88.1817 30.11 88.8664 30.3353 89.343 30.786C89.8197 31.228 90.058 31.8867 90.058 32.762V37H89.174V35.934C88.966 36.2893 88.6584 36.5667 88.251 36.766C87.8524 36.9653 87.3757 37.065 86.821 37.065C86.0584 37.065 85.4517 36.883 85.001 36.519C84.5504 36.155 84.325 35.674 84.325 35.076C84.325 34.4953 84.533 34.0273 84.949 33.672C85.3737 33.3167 86.0454 33.139 86.964 33.139H89.135V32.723C89.135 32.1337 88.9704 31.6873 88.641 31.384C88.3117 31.072 87.8307 30.916 87.198 30.916C86.7647 30.916 86.3487 30.9897 85.95 31.137C85.5514 31.2757 85.209 31.4707 84.923 31.722L84.507 31.033C84.8537 30.7383 85.2697 30.513 85.755 30.357C86.2404 30.1923 86.7517 30.11 87.289 30.11ZM86.964 36.337C87.484 36.337 87.9304 36.22 88.303 35.986C88.6757 35.7433 88.953 35.3967 89.135 34.946V33.828H86.99C85.82 33.828 85.235 34.2353 85.235 35.05C85.235 35.4487 85.3867 35.765 85.69 35.999C85.9934 36.2243 86.418 36.337 86.964 36.337ZM92.5151 30.162H93.4381V33.191H97.7411V30.162H98.6641V37H97.7411V33.984H93.4381V37H92.5151V30.162ZM106.098 30.981H103.511V37H102.588V30.981H100.001V30.162H106.098V30.981ZM107.432 30.162H108.355V35.596L112.918 30.162H113.737V37H112.814V31.566L108.264 37H107.432V30.162ZM116.382 30.162H117.305V35.596L121.868 30.162H122.687V37H121.764V31.566L117.214 37H116.382V30.162Z" fill="white"/>
<g clip-path="url(#clip0_408_1271)">
<path d="M10.4586 6.15468C10.2969 6.24609 9.86798 6.57656 9.50938 6.9C6.44376 9.64219 2.88594 10.9992 -1.75468 11.1961C-3.28046 11.2594 -3.49843 11.3227 -3.83593 11.8148C-4.01171 12.068 -4.01171 12.1031 -4.06796 14.0789C-4.15234 16.9266 -4.08906 21.518 -3.94843 22.9453C-3.55468 26.9461 -2.71093 30.0328 -1.29765 32.5922C0.678132 36.1781 3.74376 38.9273 7.87813 40.8258C9.14376 41.4094 10.7117 42 11 42C11.1195 42 11.6469 41.8383 12.1742 41.6414C15.5774 40.3687 18.3617 38.6109 20.4922 36.4031C23.7055 33.0633 25.3578 28.9922 25.9484 22.9453C26.0891 21.518 26.1524 16.9266 26.068 14.0789C26.0117 12.1031 26.0117 12.068 25.8359 11.8148C25.4984 11.3227 25.2805 11.2594 23.7547 11.1961C19.0578 10.9992 15.3875 9.57187 12.3078 6.75234C11.45 5.97187 11.0422 5.83828 10.4586 6.15468ZM11.675 9.52968C13.3906 10.9078 15.4649 12.0187 17.6024 12.7078C19.093 13.193 20.457 13.4531 22.3836 13.6289C22.9813 13.6852 23.4875 13.7484 23.5086 13.7766C23.6 13.8609 23.5508 21.9047 23.4594 22.8047C23.0867 26.4117 22.4891 28.6969 21.3149 30.9961C19.4445 34.6664 16.2383 37.3664 11.6188 39.1594L11 39.3984L10.3883 39.1594C6.21173 37.5422 3.04063 35.0531 1.21251 31.9664C-0.292181 29.4281 -1.03749 26.8687 -1.45937 22.8047C-1.55077 21.9047 -1.59999 13.8609 -1.50859 13.7766C-1.48749 13.7484 -0.981243 13.6852 -0.383587 13.6289C1.54298 13.4531 2.90704 13.193 4.39766 12.7078C6.53516 12.0187 8.58126 10.9219 10.325 9.52968C10.6695 9.24843 10.9789 9.02343 11 9.02343C11.0211 9.02343 11.3305 9.24843 11.675 9.52968Z" fill="white"/>
<path d="M15.711 19.3661C15.6125 19.4013 14.1219 20.8497 12.3922 22.5794L9.24221 25.7153L7.78675 24.2669C6.39456 22.8888 6.31018 22.8184 5.99378 22.7692C5.01643 22.6216 4.26409 23.5497 4.60159 24.4708C4.70003 24.7309 8.44065 28.4856 8.72893 28.6122C9.11565 28.781 9.59378 28.7388 9.95237 28.5067C10.4516 28.1833 17.2297 21.3419 17.3633 21.0325C17.7149 20.1677 17.1383 19.2817 16.2242 19.2958C16.0414 19.2958 15.8094 19.3309 15.711 19.3661Z" fill="white"/>
</g>
<defs>
<clipPath id="clip0_408_1271">
<rect width="26" height="36" fill="white" transform="translate(0 6)"/>
</clipPath>
</defs>
</svg>
