<svg width="134" height="13" viewBox="0 0 134 13" fill="none" xmlns="http://www.w3.org/2000/svg">
<path d="M6.28507 13C8.98364 13 10.5331 11.8036 11.6822 10.1786L9.14034 8.32143C8.40911 9.23214 7.66047 9.83929 6.38953 9.83929C4.68333 9.83929 3.48203 8.375 3.48203 6.5C3.48203 4.64286 4.68333 3.16071 6.38953 3.16071C7.55601 3.16071 8.37429 3.71429 9.0707 4.60714L11.5429 2.64286C10.4635 1.10714 8.914 0 6.42435 0C2.7334 0 0 2.85714 0 6.5C0 10.2679 2.80304 13 6.28507 13Z" fill="white"/>
<path d="M26.9751 12.75H36.2548V9.71429H30.3527V0.25H26.9751V12.75Z" fill="white"/>
<path d="M43.1348 13C46.8954 13 49.7158 10.0893 49.7158 6.5C49.7158 2.875 46.9302 0 43.1696 0C39.409 0 36.5885 2.91072 36.5885 6.5C36.5885 10.125 39.3742 13 43.1348 13ZM43.1696 9.875C41.3241 9.875 40.0532 8.30357 40.0532 6.5C40.0532 4.66071 41.2893 3.125 43.1348 3.125C44.9977 3.125 46.2686 4.69643 46.2686 6.5C46.2686 8.33929 45.0325 9.875 43.1696 9.875Z" fill="white"/>
<path d="M51.4752 12.75H54.8528V8.96429H56.3326L58.7875 12.75H62.6873L59.7798 8.39286C61.2945 7.73214 62.2869 6.46429 62.2869 4.55357C62.2869 3.28571 61.9213 2.32143 61.2075 1.58929C60.3892 0.75 59.1008 0.25 57.238 0.25H51.4752V12.75ZM54.8528 6.25V3.25H57.0639C58.1955 3.25 58.8919 3.75 58.8919 4.73214C58.8919 5.67857 58.2303 6.25 57.0813 6.25H54.8528Z" fill="white"/>
<path d="M63.9887 12.75H67.3663V9.17857H69.0377C72.0671 9.17857 74.2782 7.625 74.2782 4.67857C74.2782 1.875 72.2934 0.25 69.2118 0.25H63.9887V12.75ZM67.3663 6.46429V3.16071H68.9506C70.1694 3.16071 70.9006 3.73214 70.9006 4.80357C70.9006 5.82143 70.1693 6.46429 68.968 6.46429H67.3663Z" fill="white"/>
<path d="M75.7032 12.75H84.9828V9.71429H79.0808V0.25H75.7032V12.75Z" fill="white"/>
<path d="M91.5757 12.9821C95.0403 12.9821 97.2862 11.2143 97.2862 7.17857V0.25H93.8564V7.28571C93.8564 9.03571 92.9685 9.85714 91.6105 9.85714C90.2525 9.85714 89.3646 9 89.3646 7.19643V0.25H85.9348V7.26786C85.9348 11.1786 88.1111 12.9821 91.5757 12.9821Z" fill="white"/>
<path d="M104.073 12.9643C107.033 12.9643 109 11.4464 109 8.89286C109 6.51786 107.259 5.58929 104.456 4.96429C102.767 4.57143 102.349 4.32143 102.349 3.75C102.349 3.26786 102.75 2.91071 103.568 2.91071C104.647 2.91071 105.866 3.33929 106.98 4.14286L108.669 1.69643C107.346 0.607143 105.727 0.0357149 103.655 0.0357149C100.73 0.0357149 98.9369 1.71429 98.9369 4.03571C98.9369 6.64286 100.939 7.39286 103.533 8C105.187 8.39286 105.588 8.67857 105.588 9.19643C105.588 9.76786 105.1 10.0893 104.195 10.0893C102.785 10.0893 101.444 9.57143 100.243 8.58929L98.3624 10.8929C99.8597 12.2679 101.914 12.9643 104.073 12.9643Z" fill="white"/>
<path d="M19.1348 13C22.8954 13 25.7158 10.0893 25.7158 6.5C25.7158 2.875 22.9302 0 19.1696 0C15.409 0 12.5886 2.91072 12.5886 6.5C12.5886 10.125 15.3742 13 19.1348 13ZM19.1696 9.875C17.3241 9.875 16.0532 8.30357 16.0532 6.5C16.0532 4.66071 17.2893 3.125 19.1348 3.125C20.9977 3.125 22.2686 4.69643 22.2686 6.5C22.2686 8.33929 21.0325 9.875 19.1696 9.875Z" fill="white"/>
<rect x="112" width="22" height="13" fill="#98B61D"/>
<path d="M112 9.86538H113.737V7.94231H114.597C116.155 7.94231 117.293 7.10577 117.293 5.51923C117.293 4.00962 116.272 3.13462 114.687 3.13462H112V9.86538ZM113.737 6.48077V4.70192H114.552C115.179 4.70192 115.555 5.00962 115.555 5.58654C115.555 6.13462 115.179 6.48077 114.561 6.48077H113.737Z" fill="#171B05"/>
<path d="M118.026 9.86538H119.763V7.82692H120.524L121.787 9.86538H123.793L122.297 7.51923C123.077 7.16346 123.587 6.48077 123.587 5.45192C123.587 4.76923 123.399 4.25 123.032 3.85577C122.611 3.40385 121.948 3.13462 120.99 3.13462H118.026V9.86538ZM119.763 6.36538V4.75H120.9C121.483 4.75 121.841 5.01923 121.841 5.54808C121.841 6.05769 121.5 6.36538 120.909 6.36538H119.763Z" fill="#171B05"/>
<path d="M127.615 10C129.549 10 131 8.43269 131 6.5C131 4.54808 129.567 3 127.633 3C125.698 3 124.248 4.56731 124.248 6.5C124.248 8.45192 125.68 10 127.615 10ZM127.633 8.31731C126.683 8.31731 126.03 7.47115 126.03 6.5C126.03 5.50962 126.666 4.68269 127.615 4.68269C128.573 4.68269 129.227 5.52885 129.227 6.5C129.227 7.49038 128.591 8.31731 127.633 8.31731Z" fill="#171B05"/>
</svg>
