<svg xmlns="http://www.w3.org/2000/svg" fill="none" viewBox="0 0 40 40"><path fill="#fff" d="M26.328 18.594a.703.703 0 0 0 .703-.703v-2.11a.703.703 0 0 0-.703-.703h-8.437a.703.703 0 0 0-.703.703v16.875c0 .389.314.703.703.703h8.437a.703.703 0 0 0 0-1.406h-7.734v-2.812h3.515a.703.703 0 0 0 0-1.407h-3.515v-2.812h7.031v3.515a.703.703 0 0 0 1.406 0V22.11a.703.703 0 0 0-1.406 0v1.407h-7.031v-7.032h2.812V20a.703.703 0 0 0 1.407 0v-3.516h2.812v1.407c0 .388.315.703.703.703ZM22.813 38a.703.703 0 1 0 0-1.406.703.703 0 0 0 0 1.406Z"/><path fill="#fff" d="M34.133 6.64a3.872 3.872 0 0 0-3.867 3.868v.351H13.953V7.977A5.983 5.983 0 0 0 7.977 2 5.983 5.983 0 0 0 2 7.977v24.046A5.983 5.983 0 0 0 7.977 38h11.671a.703.703 0 0 0 0-1.406H11.82a5.946 5.946 0 0 0 2.133-4.57V12.265h16.313v21.867a.703.703 0 0 0 1.406 0 2.464 2.464 0 0 1 2.46-2.461 2.464 2.464 0 0 1 2.462 2.46 2.464 2.464 0 0 1-2.461 2.462h-8.156a.703.703 0 0 0 0 1.406h8.156A3.872 3.872 0 0 0 38 34.133V10.508a3.872 3.872 0 0 0-3.867-3.867ZM7.977 36.595c-2.52 0-4.57-2.05-4.57-4.57a4.587 4.587 0 0 1 2.812-4.22v3.165A2.815 2.815 0 0 0 9.03 33.78h3.165a4.587 4.587 0 0 1-4.22 2.813Zm4.555-4.219h-3.5c-.776 0-1.407-.63-1.407-1.406v-3.501a4.576 4.576 0 0 1 4.907 4.907Zm.015-4.197a5.965 5.965 0 0 0-9.14.002V7.977c0-2.52 2.05-4.57 4.57-4.57 2.52 0 4.57 2.05 4.57 4.57v20.201Zm24.047 2.974a3.85 3.85 0 0 0-2.461-.886c-.934 0-1.792.332-2.461.886V10.508a2.464 2.464 0 0 1 2.46-2.461 2.464 2.464 0 0 1 2.462 2.46v20.645Z"/></svg>