<svg xmlns="http://www.w3.org/2000/svg" fill="none" viewBox="0 0 40 40"><path fill="#fff" d="M20 4.77c-.446 0-.808-.333-.808-.743V1.742c0-.41.362-.742.808-.742.446 0 .808.332.808.742v2.285c0 .41-.362.742-.808.742ZM9.496 8.77a.842.842 0 0 1-.57-.218L7.166 6.936a.7.7 0 0 1 0-1.05.859.859 0 0 1 1.142 0l1.758 1.616a.7.7 0 0 1 0 1.05.843.843 0 0 1-.57.217ZM30.504 8.768a.842.842 0 0 1-.571-.217.7.7 0 0 1 0-1.05l1.758-1.615a.859.859 0 0 1 1.142 0 .7.7 0 0 1 0 1.05L31.075 8.55a.843.843 0 0 1-.571.217ZM4.506 28.792a.843.843 0 0 1-.57-.217.7.7 0 0 1 0-1.05l1.757-1.616a.859.859 0 0 1 1.142 0 .7.7 0 0 1 0 1.05l-1.758 1.616a.843.843 0 0 1-.57.217ZM35.494 28.792a.842.842 0 0 1-.571-.217l-1.758-1.616a.7.7 0 0 1 0-1.05.858.858 0 0 1 1.142 0l1.758 1.616a.7.7 0 0 1 0 1.05.843.843 0 0 1-.571.217ZM38.193 18.423h-2.487c-.446 0-.807-.332-.807-.742s.361-.742.807-.742h2.486c.446 0 .808.332.808.742s-.362.742-.807.742ZM4.294 18.423H1.807c-.445 0-.807-.332-.807-.742s.362-.742.807-.742h2.487c.446 0 .807.332.807.742s-.361.742-.807.742ZM31.745 24.643c-.79.001-1.107-.958-.448-1.359a.868.868 0 0 1 .896 0c.66.402.342 1.36-.448 1.36ZM20 25.32c-1.515 0-2.748-1.133-2.748-2.525 0-1.393 1.233-2.526 2.748-2.526 1.515 0 2.748 1.133 2.748 2.526 0 1.392-1.233 2.525-2.748 2.525Zm0-3.566c-.625 0-1.133.467-1.133 1.04 0 .575.508 1.042 1.133 1.042s1.133-.467 1.133-1.041c0-.574-.508-1.041-1.133-1.041Z"/><path fill="#fff" d="M29.907 9.559c-2.58-2.406-6.024-3.758-9.697-3.808-3.708-.048-7.226 1.24-9.902 3.631-2.674 2.39-4.173 5.582-4.221 8.986a12.044 12.044 0 0 0 1.786 6.457c1.158 1.894 2.827 3.498 4.828 4.637 1.263.72 2.018 1.963 2.018 3.327v2.873c0 .41.361.742.807.742h1.17v1.854c0 .41.362.742.808.742h4.992c.446 0 .808-.332.808-.742v-1.854h1.17c.446 0 .807-.332.807-.742v-2.873c0-1.365.752-2.607 2.011-3.323A13.913 13.913 0 0 0 29.393 28a.7.7 0 0 0 .048-1.049.858.858 0 0 0-1.141-.044c-.574.486-1.199.922-1.858 1.296a5.62 5.62 0 0 0-1.977 1.857l-.327-1.638h.043c.446 0 .808-.332.808-.742 0-.352-.268-.647-.626-.723l1.188-2.667a2.728 2.728 0 0 0-.046-2.727l-4.221-7.142a.82.82 0 0 0-.71-.388h-1.148a.82.82 0 0 0-.71.388l-4.22 7.142a2.729 2.729 0 0 0-.047 2.727l1.188 2.667c-.359.075-.626.37-.626.723 0 .41.362.742.808.742h.042l-.327 1.64A5.646 5.646 0 0 0 13.55 28.2c-3.664-2.087-5.906-5.847-5.85-9.813.043-3.007 1.369-5.827 3.733-7.94 2.322-2.076 5.358-3.213 8.567-3.213l.185.001c6.68.091 12.113 5.162 12.113 11.303 0 .53-.04 1.063-.12 1.584-.06.406.247.781.689.838.442.057.85-.226.911-.632.09-.59.135-1.191.135-1.79 0-3.382-1.423-6.57-4.007-8.979ZM21.69 37.516H18.31v-1.112h3.378v1.112Zm1.977-2.596h-7.332V33.53h7.332v1.389ZM15.914 22.27l3.992-6.754h.188l3.991 6.754c.252.426.257.937.014 1.367a.706.706 0 0 0-.03.061l-1.442 3.238h-5.254L15.931 23.7a.678.678 0 0 0-.03-.06 1.352 1.352 0 0 1 .014-1.368Zm6.582 6.151.725 3.625h-6.442l.725-3.625h4.992Z"/></svg>