<svg xmlns="http://www.w3.org/2000/svg" fill="none" viewBox="0 0 40 40"><path fill="#fff" d="M17.156 14.265a3.29 3.29 0 0 0 1.257.248c1.142 0 2.236-.584 2.745-1.574.695-1.356.032-2.967-1.478-3.591a3.313 3.313 0 0 0-2.307-.081c-.756.25-1.358.75-1.695 1.407a2.437 2.437 0 0 0-.09 2.07c.28.679.836 1.219 1.568 1.521Zm-.351-3.125c.198-.387.553-.681.998-.829a1.958 1.958 0 0 1 1.358.048c.89.367 1.28 1.316.87 2.114-.41.798-1.467 1.149-2.356.781a1.665 1.665 0 0 1-.923-.895c-.164-.4-.145-.833.053-1.22ZM12.397 26.43l2.117.875a.676.676 0 0 0 .26.052c.234 0 .459-.12.563-.325.143-.279.007-.61-.304-.738l-1.956-.808 1.496-2.075a.537.537 0 0 0 .043-.07c.215-.418.235-.887.057-1.32a1.802 1.802 0 0 0-1-.97 2.11 2.11 0 0 0-1.47-.05c-.481.16-.865.478-1.08.896a.522.522 0 0 0-.031.075l-.784 2.369-1.557-.644c.46-4.209 1.787-9.72 3.272-13.563.112-.29-.06-.608-.383-.709-.324-.1-.677.054-.79.344-1.56 4.038-2.948 9.886-3.375 14.22-.023.234.12.456.358.555l2.118.875-.745 2.25c-.141.425.083.869.532 1.054.135.056.276.083.415.083.324 0 .635-.145.823-.405l1.42-1.97Zm-.13-4.097a.66.66 0 0 1 .366-.288.75.75 0 0 1 .522.018.64.64 0 0 1 .355.344.55.55 0 0 1-.006.438l-2.602 3.608 1.364-4.12Z"/><path fill="#fff" d="M36.843 8.49a.664.664 0 0 0-.586-.175l-2.404.434a.202.202 0 0 1-.093-.005l-2.35-.69c-1.658-.486-3.447.33-3.988 1.816l-.26.713a9.29 9.29 0 0 0 .036-.892.51.51 0 0 0 .004-.072c-.073-4.246-2.884-8.2-3.003-8.366a.645.645 0 0 0-.576-.25h-.028l-.02.003c-.405.051-5.446.731-9.015 3.388a.604.604 0 0 0-.058.05c-1.172.885-2.06 1.895-2.629 3.004l-.102.202c-.14.28-.001.61.31.736.313.126.68.001.821-.279l.099-.195c.489-.954 1.214-1.757 2.06-2.434l10.898 4.505c-.023 1.016-.233 2.033-.723 2.986-.676 1.319-1.783 3.002-3.208 4.883l-6.482-.65h-.008c-1.049-.093-1.983.598-2.085 1.539l-.003.032-.004.054v.023c-.002.021-.002.043-.002.065v.007c.003.39.154.767.435 1.073l.025.025a1.758 1.758 0 0 0 .35.287 1.91 1.91 0 0 0 .532.236l.028.007c.052.014.105.026.159.035l.012.002c.058.01.118.019.178.024l5.43.545-2.012 2.44-.002.002-.996 1.207-.005.007a.557.557 0 0 0-.045.065l-.003.005-.193.309-.005.009-6.431 10.35c-.162.26-.066.59.219.746l2.843 1.557a.672.672 0 0 0 .815-.137l5.189-6.086c.208-.244.156-.593-.116-.78a.669.669 0 0 0-.87.104l-4.849 5.688-1.857-1.018 4.96-7.983c.24.463.628.87 1.148 1.157l5.715 3.168-1.706 5.488c-.092.293.097.598.423.684l3.197.84a.685.685 0 0 0 .475-.048.572.572 0 0 0 .296-.336l2.504-7.993c.29-.892-.125-1.85-1.012-2.332l-3.76-2.04 3.8-4.606c.418-.508.64-1.11.64-1.738 0-.923-.494-1.803-1.32-2.352-1.18-.784-2.762-.743-3.884.006.906-1.247 1.66-2.395 2.226-3.392-.136 1.533.906 3.01 2.605 3.509.381.112.779.17 1.18.17 1.648 0 3.098-.945 3.61-2.35l.535-1.47c.114-.315.176-.637.186-.962 1.01-.346 1.813-1.088 2.153-2.023l.723-1.988a.514.514 0 0 0-.126-.543ZM16.16 4.706c2.714-1.685 6.07-2.352 7.205-2.54a19.05 19.05 0 0 1 1.643 3.184l.008.018c.058.147.115.297.171.45l.02.055.06.17.023.066.072.216.021.067a14.184 14.184 0 0 1 .116.378l.033.114.034.125.054.207.023.092.034.142.018.08c.038.168.073.336.103.506l.012.066a10.66 10.66 0 0 1 .091.63L16.16 4.706Zm-.34 14.85-.522-.052h-.009a.734.734 0 0 1-.067-.01l-.008-.001c-.281-.054-.491-.265-.524-.517l-.001-.007a.545.545 0 0 1-.003-.044v-.016l.001-.043.001-.018.002-.011a.562.562 0 0 1 .008-.047l.007-.025.008-.031.011-.028.01-.026.015-.029.012-.022.018-.029.014-.02a.525.525 0 0 1 .022-.027l.014-.017a.598.598 0 0 1 .069-.068l.015-.012a.634.634 0 0 1 .082-.055l.017-.01a.673.673 0 0 1 .037-.018l.017-.008a.718.718 0 0 1 .039-.015l.019-.006a.71.71 0 0 1 .039-.012l.022-.006.039-.008.025-.004.037-.004.031-.002.033-.001a.73.73 0 0 1 .064.002l.587.059-.18 1.189Zm11.814 9.666c.406.22.596.659.461 1.072l-2.335 7.457-2.008-.527 1.668-5.362c.074-.238-.037-.493-.272-.623l-6.112-3.388c-.804-.445-1.073-1.373-.616-2.113l.188-.303.633-.767 8.393 4.554Zm-.736-10.794c.52.345.817.877.817 1.457 0 .389-.137.761-.397 1.076l-3.868 4.69-3.468-1.882 2.038-2.47 3.083.309h.008a2.03 2.03 0 0 0 1.398-.382c.393-.29.638-.702.687-1.157.05-.456-.102-.901-.426-1.254a1.968 1.968 0 0 0-1.284-.617l-.396-.04a2.206 2.206 0 0 1 1.808.27Zm-1.546.877h.009c.367.033.636.327.6.656a.58.58 0 0 1-.24.405.717.717 0 0 1-.486.134l-8.181-.82.18-1.189 6.186.62.006.001 1.926.193Zm7.377-5.646-.536 1.471c-.344.946-1.32 1.582-2.43 1.582-.27 0-.537-.038-.794-.114-1.34-.393-2.075-1.691-1.637-2.894l.158-.434 1.285.377a.715.715 0 0 0 .087.018l.018.003a.679.679 0 0 0 .085.006h.01a.7.7 0 0 0 .081-.006l.013-.001a.669.669 0 0 0 .082-.018l.015-.004a.642.642 0 0 0 .233-.126l.008-.009a.576.576 0 0 0 .052-.053l.008-.01a.535.535 0 0 0 .046-.065l.008-.015a.525.525 0 0 0 .036-.074l.034-.092a.64.64 0 0 1 .027-.065l.005-.01a.647.647 0 0 1 .03-.052l.001-.002a.785.785 0 0 1 .666-.343h.007c.02 0 .04.002.059.003l.016.001.052.008.024.004a.85.85 0 0 1 .074.018l1.137.334c.07.02.14.038.212.055l.035.008c.07.016.14.03.211.042l.027.004c.148.024.297.04.447.047l.025.001c.062.003.124.004.186.004-.02.135-.055.269-.103.401Zm2.339-2.983c-.26.712-.928 1.255-1.745 1.418a2.623 2.623 0 0 1-1.248-.055l-1.137-.334a2.26 2.26 0 0 0-.154-.04l-.019-.003a2.19 2.19 0 0 0-.166-.028 2.19 2.19 0 0 0-1.19.176l-.06.03-.012.005a1.98 1.98 0 0 0-.498.353l-.006.006c-.035.034-.068.07-.1.106l-.004.005a1.793 1.793 0 0 0-.095.12l-.756-.223h-.003l.727-1.996c.33-.903 1.416-1.399 2.424-1.103l2.35.69c.232.067.482.08.722.037l1.363-.246-.393 1.082ZM9.783 36.616H3.62c-.342 0-.62.25-.62.557 0 .307.278.557.62.557h6.163c.343 0 .62-.25.62-.557 0-.307-.277-.557-.62-.557ZM9.783 33.42h-4.33c-.343 0-.62.25-.62.557 0 .308.277.557.62.557h4.33c.343 0 .62-.25.62-.556 0-.308-.277-.557-.62-.557ZM9.783 30.226H7.951c-.343 0-.62.249-.62.556 0 .308.277.557.62.557h1.832c.343 0 .62-.25.62-.557 0-.307-.277-.556-.62-.556Z"/></svg>