<svg xmlns="http://www.w3.org/2000/svg" fill="none" viewBox="0 0 40 40"><path fill="#fff" d="M27.193 5.552c-.244-.223-.263-.261-.263-.377 0-.115.02-.154.263-.377.104-.095.222-.203.334-.338a.738.738 0 0 0-.098-1.042.744.744 0 0 0-1.045.098c-.048.057-.12.123-.196.193-.296.271-.742.68-.742 1.466 0 .786.446 1.196.742 1.467.244.223.263.261.263.377 0 .115-.02.154-.263.377-.061.056-.13.12-.2.19a.738.738 0 0 0 .531 1.257.74.74 0 0 0 .53-.223c.042-.042.091-.087.144-.135.296-.271.743-.68.743-1.466 0-.786-.447-1.196-.743-1.467ZM30.806 7.687c-.244-.223-.263-.262-.263-.377 0-.116.02-.154.263-.377.104-.096.222-.204.334-.339a.738.738 0 0 0-.098-1.041.744.744 0 0 0-1.045.097c-.048.058-.12.124-.196.194-.295.27-.742.68-.742 1.466 0 .785.447 1.195.742 1.466.244.223.263.262.263.377 0 .116-.02.154-.263.377-.061.056-.13.12-.2.19a.738.738 0 0 0 .531 1.258.741.741 0 0 0 .531-.223c.041-.042.09-.088.143-.136.296-.27.743-.68.743-1.466 0-.785-.447-1.195-.743-1.466ZM7.36 7.396c-.243-.223-.262-.262-.262-.377 0-.116.02-.154.263-.377.296-.271.742-.681.742-1.467 0-.785-.447-1.195-.742-1.466a2.246 2.246 0 0 1-.196-.193.744.744 0 0 0-1.045-.098.738.738 0 0 0-.098 1.042c.112.135.23.243.334.338.244.223.263.262.263.377 0 .116-.02.154-.263.377-.296.271-.743.681-.743 1.467 0 .785.447 1.195.743 1.466.052.048.102.093.143.135a.74.74 0 0 0 1.05.012.738.738 0 0 0 .012-1.046c-.07-.07-.139-.134-.2-.19ZM3.748 9.53c-.244-.223-.263-.261-.263-.377 0-.115.02-.154.263-.377.296-.27.742-.68.742-1.466 0-.786-.447-1.195-.742-1.466a2.245 2.245 0 0 1-.196-.194.744.744 0 0 0-1.045-.097.738.738 0 0 0-.098 1.041c.112.135.23.243.334.339.244.223.263.261.263.377 0 .115-.02.154-.263.377-.296.27-.743.68-.743 1.466 0 .786.447 1.195.743 1.466a3.9 3.9 0 0 1 .143.136.74.74 0 0 0 1.05.012.738.738 0 0 0 .012-1.046c-.07-.07-.139-.134-.2-.19ZM16.774 5.666a2.68 2.68 0 0 0-2.68 2.672 2.68 2.68 0 0 0 2.68 2.672 2.68 2.68 0 0 0 2.68-2.672 2.68 2.68 0 0 0-2.68-2.672Zm0 3.865c-.659 0-1.196-.535-1.196-1.193a1.195 1.195 0 0 1 2.393 0c0 .658-.537 1.193-1.197 1.193ZM27.468 18.812a.753.753 0 0 0-.315-.47.756.756 0 0 0-.557-.11.773.773 0 0 0-.267.11.71.71 0 0 0-.273.332.696.696 0 0 0-.058.282.744.744 0 0 0 .743.74.733.733 0 0 0 .284-.057.752.752 0 0 0 .24-.16.712.712 0 0 0 .16-.24.79.79 0 0 0 .058-.283.73.73 0 0 0-.015-.144ZM7.536 18.812a.738.738 0 0 0-.583-.58.75.75 0 0 0-.83.442.745.745 0 0 0 0 .566.758.758 0 0 0 .16.24.746.746 0 0 0 1.05 0 .744.744 0 0 0 .203-.668Z"/><path fill="#fff" d="M37.93 17.492a4.161 4.161 0 0 0-3.078-1.363.741.741 0 0 0-.743.74v12.807h-5.607l4.023-15.396a.738.738 0 0 0-.718-.926H20.235l-.139-.922a5.279 5.279 0 0 0 1.992-4.135c0-2.92-2.383-5.297-5.314-5.297-2.93 0-5.314 2.376-5.314 5.297 0 1.62.737 3.133 1.993 4.135l-.14.922H1.744a.743.743 0 0 0-.719.926L6.01 33.364c.085.326.38.553.718.553h20.093a.742.742 0 0 0 .718-.553l.23-.878A5.071 5.071 0 0 0 32.808 37c2.784 0 5.05-2.247 5.07-5.017l1.1-11.3a4.135 4.135 0 0 0-1.05-3.191ZM12.945 8.297a3.828 3.828 0 0 1 3.83-3.817 3.828 3.828 0 0 1 3.83 3.817 3.81 3.81 0 0 1-1.72 3.185.739.739 0 0 0-.323.727l.172 1.145h-3.919l.173-1.145a.739.739 0 0 0-.325-.727 3.81 3.81 0 0 1-1.718-3.185Zm-2.726 24.14L7.985 21.53a.742.742 0 0 0-1.454.296l2.173 10.612H7.302l-4.6-17.604h8.123l1.637 17.604h-2.243Zm7.298 0V18.2a.741.741 0 0 0-.742-.74.741.741 0 0 0-.743.74v14.239h-2.08l-1.636-17.604h8.917l-1.636 17.604h-2.08Zm8.73 0h-1.402l2.173-10.611a.742.742 0 0 0-1.454-.296L23.33 32.438h-2.243l1.637-17.604h8.122l-4.599 17.604Zm11.255-11.9-1.103 11.338a.74.74 0 0 0-.004.071 3.584 3.584 0 0 1-3.585 3.574 3.584 3.584 0 0 1-3.586-3.574v-.79h5.628c.41 0 .742-.331.742-.74V17.711c.47.134.894.398 1.234.773.512.564.751 1.292.674 2.052Z"/></svg>