<svg xmlns="http://www.w3.org/2000/svg" fill="none" viewBox="0 0 24 24"><path fill="#BDE226" d="M11.157.023c-1.17.113-1.935.258-2.809.54-1.883.6-3.476 1.58-4.88 2.997C1.598 5.45.504 7.646.086 10.357c-.123.817-.113 2.524.023 3.401.211 1.333.559 2.435 1.156 3.612a11.463 11.463 0 0 0 2.062 2.913c3.659 3.828 9.338 4.809 14.092 2.43.291-.145.54-.277.559-.295.028-.024-.31-.657-.601-1.117l-.066-.103-.62.3c-1.593.77-2.94 1.08-4.712 1.075-1.738 0-3.058-.3-4.603-1.051-3.33-1.614-5.604-4.888-5.942-8.561C.987 8.073 3.989 3.49 8.658 1.94a10.645 10.645 0 0 1 10.203 1.976c1.63 1.37 2.87 3.34 3.41 5.408a10.77 10.77 0 0 1-.343 6.427c-.375.99-1.273 2.524-1.61 2.754-.17.117-.499.145-.673.056-.056-.028-.342-.286-.629-.573l-.53-.52.21-.216.212-.211-3.312-3.307-.657.657c-.362.36-.69.656-.733.656-.042 0-.324-.06-.62-.136a6.178 6.178 0 0 1-4.5-4.494A6.376 6.376 0 0 1 8.95 9.8c0-.042.295-.37.657-.732l.658-.656-3.312-3.308-1.855 1.853v.54c0 3.147 1.212 6.028 3.433 8.185 2.166 2.097 4.933 3.214 7.981 3.214h.545l.409-.418.601.582c.489.47.667.614.963.76.362.174.376.178.907.178.516 0 .563-.01.86-.15.403-.188.718-.483 1.09-1.018 1.117-1.623 1.794-3.4 2.057-5.423.075-.586.075-2.345 0-2.885-.39-2.767-1.55-5.136-3.439-7.012A11.93 11.93 0 0 0 13.06.042c-.526-.047-1.522-.056-1.903-.019Z"/></svg>