<svg width="25" height="25" viewBox="0 0 25 25" fill="none" xmlns="http://www.w3.org/2000/svg">
<path d="M5.56641 0.0331656C4.63867 0.135705 3.57422 0.52633 2.80762 1.03902C2.40234 1.31246 2.28027 1.415 1.81641 1.8691C0.976562 2.6943 0.385742 3.79293 0.117188 5.02828C0.0292969 5.42379 0.0244141 5.79 0.0244141 12.499C0.0244141 19.208 0.0292969 19.5742 0.117188 19.9697C0.668945 22.4843 2.51465 24.33 5.0293 24.8818C5.4248 24.9697 5.79102 24.9746 12.5 24.9746C19.209 24.9746 19.5752 24.9697 19.9707 24.8818C22.4854 24.33 24.3311 22.4843 24.8828 19.9697C24.9707 19.5742 24.9756 19.208 24.9756 12.499C24.9756 5.79 24.9707 5.42379 24.8828 5.02828C24.3945 2.79195 22.8223 1.00973 20.7275 0.326134C19.7607 0.00875148 20.3467 0.0282827 12.6953 0.0233999C8.86719 0.0185171 5.65918 0.0233999 5.56641 0.0331656ZM19.5801 2.16695C20.0391 2.26461 20.6299 2.50387 20.9912 2.74313C21.9385 3.36324 22.6465 4.41305 22.8467 5.49215C22.8857 5.68746 22.9004 7.88473 22.9004 12.5185C22.9004 18.0703 22.8857 19.3203 22.832 19.5791C22.6709 20.3408 22.2607 21.1025 21.7139 21.6689C21.1621 22.2353 20.249 22.7187 19.4727 22.8505C19.2578 22.8847 17.0508 22.8994 12.3047 22.8896L5.44434 22.875L4.98047 22.7138C4.33594 22.4892 3.81348 22.167 3.34473 21.7031C2.71973 21.0879 2.34375 20.4091 2.16797 19.5791C2.07031 19.1054 2.07031 5.89254 2.16797 5.41891C2.51465 3.79293 3.76953 2.52828 5.39551 2.17184C5.83984 2.07418 19.1211 2.0693 19.5801 2.16695Z" fill="#A1C411"/>
<path d="M17.3438 8.45604C17.2266 8.51952 15.7617 9.92088 13.9307 11.7226C12.1631 13.456 10.6348 14.9453 10.5322 15.0381L10.3467 15.1992L9.18945 14.0517C8.55469 13.417 7.9541 12.8603 7.86133 12.8115C7.58789 12.6699 7.1582 12.6894 6.875 12.8555C6.39648 13.1338 6.2207 13.7783 6.49414 14.2422C6.5625 14.3545 7.33398 15.1504 8.21289 16.0098C9.73633 17.499 9.82422 17.5771 10.083 17.6504C10.4687 17.7627 10.7666 17.6894 11.1035 17.3916C11.2402 17.2695 12.998 15.5556 15.0098 13.5781C17.6367 11 18.6914 9.93065 18.7549 9.78905C19.1504 8.92479 18.1738 8.00682 17.3438 8.45604Z" fill="#A1C411"/>
</svg>
